<svg width="8" height="13" viewBox="0 0 8 13" fill="none" xmlns="http://www.w3.org/2000/svg">
<path d="M6.17425 0.328V10.672C6.17425 11.376 6.30225 11.856 6.55825 12.112C6.83025 12.368 7.27825 12.496 7.90225 12.496V13C7.58225 12.984 7.11025 12.968 6.48625 12.952C5.87825 12.92 5.24625 12.904 4.59025 12.904C3.77425 12.904 2.98225 12.92 2.21425 12.952C1.46225 12.968 0.87825 12.984 0.46225 13V12.496C1.18225 12.496 1.73425 12.368 2.11825 12.112C2.51825 11.84 2.71825 11.312 2.71825 10.528V4.672C2.71825 3.904 2.65425 3.336 2.52625 2.968C2.39825 2.6 2.15825 2.36 1.80625 2.248C1.45425 2.136 0.97425 2.08 0.36625 2.08V1.552C1.74225 1.52 2.87825 1.416 3.77425 1.24C4.68625 1.064 5.48625 0.759999 6.17425 0.328Z" fill="url(#paint0_linear_145_3646)"/>
<defs>
<linearGradient id="paint0_linear_145_3646" x1="2.43583" y1="0.545455" x2="10.045" y2="5.37319" gradientUnits="userSpaceOnUse">
<stop stop-color="#FFE401"/>
<stop offset="1" stop-color="#007B84"/>
</linearGradient>
</defs>
</svg>
