<svg width="64" height="107" viewBox="0 0 64 107" fill="none" xmlns="http://www.w3.org/2000/svg">
<path d="M48.6188 0.799659V86.9997C48.6188 92.8663 49.6854 96.8663 51.8188 98.9997C54.0854 101.133 57.8188 102.2 63.0188 102.2V106.4C60.3521 106.266 56.4188 106.133 51.2188 106C46.1521 105.733 40.8854 105.6 35.4188 105.6C28.6188 105.6 22.0188 105.733 15.6188 106C9.35208 106.133 4.48542 106.266 1.01875 106.4V102.2C7.01875 102.2 11.6188 101.133 14.8188 98.9997C18.1521 96.733 19.8188 92.333 19.8188 85.7997V36.9997C19.8188 30.5997 19.2854 25.8663 18.2188 22.7997C17.1521 19.733 15.1521 17.733 12.2188 16.7997C9.28542 15.8663 5.28542 15.3997 0.218751 15.3997V10.9997C11.6854 10.733 21.1521 9.86632 28.6188 8.39966C36.2188 6.93298 42.8854 4.39965 48.6188 0.799659Z" fill="url(#paint0_linear_136_2114)"/>
<defs>
<linearGradient id="paint0_linear_136_2114" x1="12.8249" y1="34.5333" x2="57.8034" y2="92.8527" gradientUnits="userSpaceOnUse">
<stop stop-color="#FFE401"/>
<stop offset="1" stop-color="#007B84"/>
</linearGradient>
</defs>
</svg>
