<svg width="11" height="14" viewBox="0 0 11 14" fill="none" xmlns="http://www.w3.org/2000/svg">
<path d="M5.81875 0.256C7.05075 0.256 8.02675 0.52 8.74675 1.048C9.46675 1.576 9.82675 2.328 9.82675 3.304C9.82675 3.928 9.66675 4.496 9.34675 5.008C9.04275 5.52 8.63475 6.008 8.12275 6.472C7.61075 6.92 7.05875 7.344 6.46675 7.744C5.89075 8.144 5.33075 8.544 4.78675 8.944C4.24275 9.328 3.77875 9.728 3.39475 10.144H8.57875C9.23475 10.144 9.65075 10.064 9.82675 9.904C10.0028 9.744 10.1228 9.464 10.1868 9.064H10.6908C10.6908 10.136 10.6988 10.968 10.7148 11.56C10.7308 12.152 10.7548 12.672 10.7868 13.12C10.6428 13.088 10.3788 13.064 9.99475 13.048C9.61075 13.032 9.17075 13.016 8.67475 13C8.17875 13 7.69075 13 7.21075 13H0.22675V12.544C0.67475 12.064 1.22675 11.536 1.88275 10.96C2.53875 10.384 3.17875 9.744 3.80275 9.04C4.44275 8.336 4.97875 7.576 5.41075 6.76C5.84275 5.928 6.05875 5.04 6.05875 4.096C6.05875 3.232 5.86675 2.608 5.48275 2.224C5.09875 1.84 4.54675 1.648 3.82675 1.648C3.13875 1.648 2.53075 1.808 2.00275 2.128C1.49075 2.432 1.02675 2.888 0.61075 3.496L0.20275 3.256C0.52275 2.712 0.92275 2.216 1.40275 1.768C1.89875 1.304 2.50675 0.936 3.22675 0.664C3.94675 0.392 4.81075 0.256 5.81875 0.256Z" fill="url(#paint0_linear_145_3652)"/>
<defs>
<linearGradient id="paint0_linear_145_3652" x1="3.46658" y1="2.48703" x2="13.8666" y2="8.49764" gradientUnits="userSpaceOnUse">
<stop stop-color="#FFE401"/>
<stop offset="1" stop-color="#007B84"/>
</linearGradient>
</defs>
</svg>
