<svg width="89" height="108" viewBox="0 0 89 108" fill="none" xmlns="http://www.w3.org/2000/svg">
<path d="M47.1563 0.0993128C57.4229 0.0993128 65.5563 2.29931 71.5563 6.69931C77.5563 11.0993 80.5563 17.366 80.5563 25.4993C80.5563 30.6993 79.2229 35.4326 76.5563 39.6993C74.0229 43.966 70.6229 48.0326 66.3563 51.8993C62.0896 55.6326 57.4896 59.166 52.5563 62.4993C47.7563 65.8326 43.0896 69.166 38.5563 72.4993C34.0229 75.6993 30.1563 79.0326 26.9563 82.4993H70.1563C75.6229 82.4993 79.0896 81.8326 80.5563 80.4993C82.0229 79.166 83.0229 76.8326 83.5563 73.4993H87.7563C87.7563 82.4326 87.8229 89.366 87.9563 94.2993C88.0896 99.2326 88.2896 103.566 88.5563 107.299C87.3563 107.033 85.1563 106.833 81.9563 106.699C78.7563 106.566 75.0896 106.433 70.9563 106.299C66.8229 106.299 62.7563 106.299 58.7563 106.299H0.556251V102.499C4.28958 98.4993 8.88958 94.0993 14.3563 89.2993C19.8229 84.4993 25.1563 79.166 30.3563 73.2993C35.6896 67.4326 40.1563 61.0993 43.7563 54.2993C47.3563 47.366 49.1563 39.966 49.1563 32.0993C49.1563 24.8993 47.5563 19.6993 44.3563 16.4993C41.1563 13.2993 36.5563 11.6993 30.5563 11.6993C24.8229 11.6993 19.7563 13.0326 15.3563 15.6993C11.0896 18.2326 7.22292 22.0326 3.75625 27.0993L0.35625 25.0993C3.02292 20.566 6.35625 16.4326 10.3563 12.6993C14.4896 8.83265 19.5563 5.76598 25.5563 3.49932C31.5563 1.23265 38.7563 0.0993128 47.1563 0.0993128Z" fill="url(#paint0_linear_136_2146)"/>
<defs>
<linearGradient id="paint0_linear_136_2146" x1="26.8249" y1="27.7485" x2="56.0948" y2="79.4505" gradientUnits="userSpaceOnUse">
<stop stop-color="#FFE401"/>
<stop offset="1" stop-color="#007B84"/>
</linearGradient>
</defs>
</svg>
