<svg width="12" height="17" viewBox="0 0 12 17" fill="none" xmlns="http://www.w3.org/2000/svg">
<path d="M6.04463 0.256C6.82863 0.256 7.53263 0.368 8.15663 0.592C8.78063 0.8 9.26863 1.112 9.62063 1.528C9.97263 1.928 10.1486 2.424 10.1486 3.016C10.1486 3.624 9.94863 4.192 9.54863 4.72C9.16463 5.248 8.60463 5.712 7.86863 6.112C7.14863 6.496 6.28463 6.784 5.27663 6.976C6.36463 6.928 7.34063 7.04 8.20463 7.312C9.06863 7.584 9.74863 8 10.2446 8.56C10.7566 9.104 11.0126 9.792 11.0126 10.624C11.0126 11.36 10.8126 12.04 10.4126 12.664C10.0286 13.288 9.49263 13.84 8.80463 14.32C8.11663 14.816 7.33263 15.232 6.45263 15.568C5.58863 15.92 4.67663 16.184 3.71663 16.36C2.75663 16.536 1.79663 16.624 0.836625 16.624V16.144C1.58863 16.128 2.34863 15.992 3.11663 15.736C3.90063 15.496 4.61263 15.144 5.25263 14.68C5.90863 14.232 6.43663 13.672 6.83663 13C7.23663 12.312 7.43663 11.528 7.43663 10.648C7.43663 9.704 7.21263 8.928 6.76463 8.32C6.31663 7.712 5.70063 7.376 4.91663 7.312C4.67663 7.424 4.46063 7.52 4.26863 7.6C4.07663 7.664 3.88463 7.696 3.69263 7.696C3.54863 7.696 3.43663 7.672 3.35663 7.624C3.27663 7.576 3.23663 7.488 3.23663 7.36C3.23663 7.168 3.31663 7.032 3.47663 6.952C3.63663 6.872 3.81263 6.832 4.00463 6.832C4.13263 6.832 4.26063 6.848 4.38863 6.88C4.53263 6.896 4.68463 6.912 4.84463 6.928C5.53263 6.448 6.01263 5.936 6.28463 5.392C6.55663 4.832 6.69263 4.272 6.69263 3.712C6.69263 2.992 6.50063 2.464 6.11663 2.128C5.74863 1.776 5.22863 1.6 4.55663 1.6C3.93263 1.6 3.34863 1.76 2.80463 2.08C2.26063 2.384 1.80463 2.848 1.43663 3.472L1.00463 3.256C1.29263 2.728 1.65263 2.24 2.08463 1.792C2.51663 1.328 3.05263 0.96 3.69263 0.688C4.33263 0.4 5.11663 0.256 6.04463 0.256Z" fill="url(#paint0_linear_145_3661)"/>
<defs>
<linearGradient id="paint0_linear_145_3661" x1="4.123" y1="0.545455" x2="12.2302" y2="6.71791" gradientUnits="userSpaceOnUse">
<stop stop-color="#FFE401"/>
<stop offset="1" stop-color="#007B84"/>
</linearGradient>
</defs>
</svg>
