<svg width="94" height="145" viewBox="0 0 94 145" fill="none" xmlns="http://www.w3.org/2000/svg">
<g filter="url(#filter0_d_136_2147)">
<path d="M48.3719 0.0993128C54.9052 0.0993128 60.7719 1.03265 65.9719 2.89931C71.1719 4.63265 75.2385 7.23265 78.1719 10.6993C81.1052 14.0326 82.5719 18.166 82.5719 23.0993C82.5719 28.166 80.9052 32.8993 77.5719 37.2993C74.3719 41.6993 69.7052 45.566 63.5719 48.8993C57.5719 52.0993 50.3719 54.4993 41.9719 56.0993C51.0385 55.6993 59.1719 56.6326 66.3719 58.8993C73.5719 61.166 79.2385 64.6326 83.3719 69.2993C87.6385 73.8326 89.7719 79.566 89.7719 86.4993C89.7719 92.6326 88.1052 98.2993 84.7719 103.499C81.5719 108.699 77.1052 113.299 71.3719 117.299C65.6385 121.433 59.1052 124.899 51.7719 127.699C44.5719 130.633 36.9719 132.833 28.9719 134.299C20.9719 135.766 12.9719 136.499 4.97188 136.499V132.499C11.2385 132.366 17.5719 131.233 23.9719 129.099C30.5052 127.099 36.4385 124.166 41.7719 120.299C47.2385 116.566 51.6385 111.899 54.9719 106.299C58.3052 100.566 59.9719 94.0326 59.9719 86.6993C59.9719 78.8326 58.1052 72.366 54.3719 67.2993C50.6385 62.2326 45.5052 59.4326 38.9719 58.8993C36.9719 59.8326 35.1719 60.6326 33.5719 61.2993C31.9719 61.8326 30.3719 62.0993 28.7719 62.0993C27.5719 62.0993 26.6385 61.8993 25.9719 61.4993C25.3052 61.0993 24.9719 60.366 24.9719 59.2993C24.9719 57.6993 25.6385 56.566 26.9719 55.8993C28.3052 55.2326 29.7719 54.8993 31.3719 54.8993C32.4385 54.8993 33.5052 55.0326 34.5719 55.2993C35.7719 55.4326 37.0385 55.566 38.3719 55.6993C44.1052 51.6993 48.1052 47.4326 50.3719 42.8993C52.6385 38.2326 53.7719 33.566 53.7719 28.8993C53.7719 22.8993 52.1719 18.4993 48.9719 15.6993C45.9052 12.766 41.5719 11.2993 35.9719 11.2993C30.7719 11.2993 25.9052 12.6326 21.3719 15.2993C16.8385 17.8326 13.0385 21.6993 9.97188 26.8993L6.37188 25.0993C8.77188 20.6993 11.7719 16.6326 15.3719 12.8993C18.9719 9.03265 23.4385 5.96598 28.7719 3.69931C34.1052 1.29931 40.6385 0.0993128 48.3719 0.0993128Z" fill="url(#paint0_linear_136_2147)"/>
</g>
<defs>
<filter id="filter0_d_136_2147" x="0.971924" y="0.0993652" width="92.8" height="144.4" filterUnits="userSpaceOnUse" color-interpolation-filters="sRGB">
<feFlood flood-opacity="0" result="BackgroundImageFix"/>
<feColorMatrix in="SourceAlpha" type="matrix" values="0 0 0 0 0 0 0 0 0 0 0 0 0 0 0 0 0 0 127 0" result="hardAlpha"/>
<feOffset dy="4"/>
<feGaussianBlur stdDeviation="2"/>
<feComposite in2="hardAlpha" operator="out"/>
<feColorMatrix type="matrix" values="0 0 0 0 0 0 0 0 0 0 0 0 0 0 0 0 0 0 0.25 0"/>
<feBlend mode="normal" in2="BackgroundImageFix" result="effect1_dropShadow_136_2147"/>
<feBlend mode="normal" in="SourceGraphic" in2="effect1_dropShadow_136_2147" result="shape"/>
</filter>
<linearGradient id="paint0_linear_136_2147" x1="30.3249" y1="30.4223" x2="66.0018" y2="85.4645" gradientUnits="userSpaceOnUse">
<stop stop-color="#FFE401"/>
<stop offset="1" stop-color="#007B84"/>
</linearGradient>
</defs>
</svg>
