<svg width="12" height="17" viewBox="0 0 12 17" fill="none" xmlns="http://www.w3.org/2000/svg">
<path d="M9.144 0.256L9.24 0.88L1.752 10.48L2.088 9.664H9.72C10.376 9.664 10.792 9.584 10.968 9.424C11.144 9.264 11.264 8.984 11.328 8.584H11.832C11.832 9.544 11.84 10.296 11.856 10.84C11.872 11.368 11.896 11.84 11.928 12.256C11.816 12.224 11.608 12.208 11.304 12.208C11 12.192 10.64 12.176 10.224 12.16C9.808 12.144 9.384 12.136 8.952 12.136C8.536 12.136 8.144 12.136 7.776 12.136H0.192V11.632L9.144 0.256ZM9.528 0.256V16.384H6.744V3.64L9.144 0.256H9.528Z" fill="url(#paint0_linear_145_3668)"/>
<defs>
<linearGradient id="paint0_linear_145_3668" x1="4.46658" y1="3.48663" x2="15.5588" y2="9.04132" gradientUnits="userSpaceOnUse">
<stop stop-color="#FFE401"/>
<stop offset="1" stop-color="#007B84"/>
</linearGradient>
</defs>
</svg>
