<svg width="107" height="143" viewBox="0 0 107 143" fill="none" xmlns="http://www.w3.org/2000/svg">
<g filter="url(#filter0_d_136_2148)">
<path d="M79.368 0.599313L80.168 5.79932L17.768 85.7993L20.568 78.9993H84.168C89.6346 78.9993 93.1013 78.3326 94.568 76.9993C96.0346 75.666 97.0346 73.3326 97.568 69.9993H101.768C101.768 77.9993 101.835 84.266 101.968 88.7993C102.101 93.1993 102.301 97.1326 102.568 100.599C101.635 100.333 99.9013 100.199 97.368 100.199C94.8346 100.066 91.8346 99.9326 88.368 99.7993C84.9013 99.666 81.368 99.5993 77.768 99.5993C74.3013 99.5993 71.0346 99.5993 67.968 99.5993H4.76797V95.3993L79.368 0.599313ZM82.568 0.599313V134.999H59.368V28.7993L79.368 0.599313H82.568Z" fill="url(#paint0_linear_136_2148)"/>
</g>
<defs>
<filter id="filter0_d_136_2148" x="0.768066" y="0.599365" width="105.8" height="142.4" filterUnits="userSpaceOnUse" color-interpolation-filters="sRGB">
<feFlood flood-opacity="0" result="BackgroundImageFix"/>
<feColorMatrix in="SourceAlpha" type="matrix" values="0 0 0 0 0 0 0 0 0 0 0 0 0 0 0 0 0 0 127 0" result="hardAlpha"/>
<feOffset dy="4"/>
<feGaussianBlur stdDeviation="2"/>
<feComposite in2="hardAlpha" operator="out"/>
<feColorMatrix type="matrix" values="0 0 0 0 0 0 0 0 0 0 0 0 0 0 0 0 0 0 0.25 0"/>
<feBlend mode="normal" in2="BackgroundImageFix" result="effect1_dropShadow_136_2148"/>
<feBlend mode="normal" in="SourceGraphic" in2="effect1_dropShadow_136_2148" result="shape"/>
</filter>
<linearGradient id="paint0_linear_136_2148" x1="38.3249" y1="32.794" x2="78.4097" y2="89.603" gradientUnits="userSpaceOnUse">
<stop stop-color="#FFE401"/>
<stop offset="1" stop-color="#007B84"/>
</linearGradient>
</defs>
</svg>
