<svg width="32" height="32" viewBox="0 0 32 32" fill="none" xmlns="http://www.w3.org/2000/svg">
<path d="M30.6794 7.83643C30.2007 6.72799 29.5104 5.72353 28.6473 4.87929C27.7835 4.03252 26.765 3.35961 25.6473 2.89714C24.4883 2.41569 23.2452 2.16926 21.9901 2.17214C20.2294 2.17214 18.5116 2.65429 17.0187 3.565C16.6616 3.78286 16.3223 4.02214 16.0008 4.28286C15.6794 4.02214 15.3401 3.78286 14.983 3.565C13.4901 2.65429 11.7723 2.17214 10.0116 2.17214C8.74369 2.17214 7.51512 2.415 6.35441 2.89714C5.23298 3.36143 4.22227 4.02929 3.35441 4.87929C2.49011 5.72258 1.79969 6.72728 1.32227 7.83643C0.825837 8.99 0.572266 10.215 0.572266 11.4757C0.572266 12.665 0.815123 13.9043 1.29727 15.165C1.70084 16.2186 2.27941 17.3114 3.01869 18.415C4.19012 20.1614 5.80084 21.9829 7.80084 23.8293C11.1151 26.89 14.3973 29.0043 14.5366 29.09L15.383 29.6329C15.758 29.8722 16.2401 29.8722 16.6151 29.6329L17.4616 29.09C17.6008 29.0007 20.8794 26.89 24.1973 23.8293C26.1973 21.9829 27.808 20.1614 28.9794 18.415C29.7187 17.3114 30.3008 16.2186 30.7008 15.165C31.183 13.9043 31.4258 12.665 31.4258 11.4757C31.4294 10.215 31.1758 8.99 30.6794 7.83643ZM16.0008 26.8079C16.0008 26.8079 3.28655 18.6614 3.28655 11.4757C3.28655 7.83643 6.29727 4.88643 10.0116 4.88643C12.6223 4.88643 14.8866 6.34357 16.0008 8.47215C17.1151 6.34357 19.3794 4.88643 21.9901 4.88643C25.7044 4.88643 28.7151 7.83643 28.7151 11.4757C28.7151 18.6614 16.0008 26.8079 16.0008 26.8079Z" fill="#FFE502"/>
</svg>
