<svg width="54" height="54" viewBox="0 0 54 54" fill="none" xmlns="http://www.w3.org/2000/svg">
<path d="M26.992 5.27213C34.042 5.27213 34.877 5.29913 37.661 5.42613C40.235 5.54313 41.633 5.97414 42.564 6.33514C43.796 6.81414 44.676 7.38613 45.599 8.31013C46.523 9.23413 47.095 10.1131 47.574 11.3451C47.936 12.2761 48.365 13.6731 48.483 16.2481C48.61 19.0321 48.637 19.8671 48.637 26.9171C48.637 33.9671 48.61 34.8021 48.483 37.5861C48.365 40.1611 47.935 41.5581 47.574 42.4881C47.095 43.7211 46.523 44.6001 45.599 45.5241C44.675 46.4481 43.796 47.0201 42.564 47.4991C41.633 47.8611 40.235 48.2911 37.661 48.4081C34.877 48.5341 34.043 48.5621 26.992 48.5621C19.941 48.5621 19.107 48.5351 16.323 48.4081C13.749 48.2911 12.351 47.8601 11.421 47.4991C10.188 47.0201 9.30896 46.4481 8.38496 45.5241C7.46096 44.6001 6.88897 43.7211 6.40997 42.4881C6.04897 41.5581 5.61896 40.1601 5.50096 37.5861C5.37396 34.8021 5.34796 33.9671 5.34796 26.9171C5.34796 19.8671 5.37496 19.0321 5.50096 16.2481C5.61896 13.6731 6.04897 12.2761 6.40997 11.3451C6.88897 10.1131 7.46096 9.23413 8.38496 8.31013C9.30896 7.38613 10.188 6.81414 11.421 6.33514C12.351 5.97314 13.749 5.54313 16.323 5.42613C19.107 5.29913 19.943 5.27213 26.992 5.27213ZM26.992 0.515137C19.821 0.515137 18.923 0.546133 16.106 0.674133C13.296 0.802133 11.377 1.24913 9.69696 1.90113C7.96096 2.57613 6.48797 3.47814 5.02097 4.94614C3.55297 6.41414 2.64997 7.88713 1.97597 9.62313C1.32297 11.3021 0.875962 13.2211 0.748962 16.0321C0.619962 18.8481 0.589966 19.7471 0.589966 26.9181C0.589966 34.0891 0.619962 34.9881 0.748962 37.8041C0.876962 40.6141 1.32297 42.5331 1.97597 44.2131C2.64997 45.9491 3.55297 47.4221 5.02097 48.8891C6.48897 50.3571 7.96096 51.2601 9.69696 51.9341C11.376 52.5861 13.295 53.0331 16.106 53.1611C18.922 53.2891 19.821 53.3201 26.992 53.3201C34.162 53.3201 35.061 53.2901 37.877 53.1611C40.687 53.0331 42.606 52.5861 44.286 51.9341C46.022 51.2591 47.495 50.3571 48.962 48.8891C50.43 47.4211 51.333 45.9481 52.007 44.2131C52.659 42.5331 53.106 40.6141 53.234 37.8041C53.362 34.9881 53.392 34.0891 53.392 26.9181C53.392 19.7471 53.362 18.8491 53.234 16.0321C53.106 13.2221 52.659 11.3031 52.007 9.62313C51.332 7.88713 50.43 6.41414 48.962 4.94614C47.494 3.47814 46.022 2.57513 44.286 1.90113C42.606 1.24913 40.687 0.802133 37.877 0.674133C35.061 0.546133 34.163 0.515137 26.992 0.515137Z" fill="#FFE502"/>
<path d="M26.992 13.3601C19.505 13.3601 13.434 19.4301 13.434 26.9181C13.434 34.4061 19.504 40.4761 26.992 40.4761C34.48 40.4761 40.55 34.4061 40.55 26.9181C40.55 19.4301 34.48 13.3601 26.992 13.3601ZM26.992 35.7181C22.131 35.7181 18.191 31.7771 18.191 26.9171C18.191 22.0561 22.131 18.1161 26.992 18.1161C31.853 18.1161 35.792 22.0561 35.792 26.9171C35.793 31.7781 31.853 35.7181 26.992 35.7181Z" fill="#FFE502"/>
<path d="M44.254 12.8242C44.254 14.5732 42.835 15.9932 41.086 15.9932C39.336 15.9932 37.917 14.5742 37.917 12.8242C37.917 11.0742 39.336 9.65625 41.086 9.65625C42.836 9.65625 44.254 11.0742 44.254 12.8242Z" fill="#FFE502"/>
</svg>
