<svg width="56" height="46" viewBox="0 0 56 46" fill="none" xmlns="http://www.w3.org/2000/svg">
<path d="M51.9362 0.321728L1.52885 19.6608C-0.105328 20.2878 -0.00610706 22.5944 1.67667 23.0819L14.4848 26.8059L19.2658 41.7401C19.765 43.3002 21.7718 43.7726 22.9341 42.6044L29.5579 35.9467L42.5524 45.3376C44.142 46.4869 46.407 45.6327 46.811 43.7318L55.4162 3.22345C55.8374 1.2388 53.8559 -0.414913 51.9362 0.321728ZM45.6162 9.31196L22.2041 29.6967C21.9692 29.8991 21.8214 30.1811 21.786 30.4852L20.8848 38.3749C20.8555 38.6331 20.491 38.667 20.413 38.4198L16.7022 26.6534C16.5331 26.1152 16.7548 25.531 17.2419 25.234L44.8902 8.35104C45.5261 7.96229 46.1771 8.82352 45.6162 9.31196Z" fill="#FFE502"/>
</svg>
