<svg width="45" height="44" viewBox="0 0 45 44" fill="none" xmlns="http://www.w3.org/2000/svg">
<path fill-rule="evenodd" clip-rule="evenodd" d="M43.9256 16.9732C41.5589 7.21093 33.0175 0.582494 22.7182 0.435059C21.3597 0.484204 19.8933 0.599168 18.5598 0.861567C4.119 3.69969 -3.31352 19.4015 3.66975 32.0511C3.91934 32.396 3.91934 32.7242 3.86942 33.1016C2.85322 36.3671 1.9199 39.7467 1.01958 43.0446C0.869827 43.6361 0.869834 43.6361 1.42785 43.4712C4.95247 42.5365 8.44411 41.6502 11.9607 40.7971C12.2691 40.6988 12.4857 40.6988 12.7442 40.8463C17.2601 43.1105 22.0265 43.7169 27.0263 42.8156C38.9516 40.5505 46.7754 28.5899 43.9256 16.9732ZM25.7766 39.3693C24.7354 39.5659 23.7593 39.665 23.2682 39.5826C19.4271 39.5826 16.3357 38.762 13.4609 37.1218C13.0527 36.8761 12.7442 36.7936 12.352 36.941C10.3856 37.4167 8.46907 37.9257 6.51957 38.418C6.11932 38.5496 6.07831 38.4838 6.16924 38.0731C6.68536 36.3013 7.16938 34.496 7.73543 32.6584C7.86022 32.166 7.82725 31.8054 7.50991 31.3947C3.56901 25.0944 3.74372 17.3006 8.15172 11.4602C12.7434 5.42239 19.0509 2.9125 26.5414 4.48689C33.9321 6.01302 38.6663 10.7546 40.3493 17.9895C42.7418 27.901 35.9431 37.7449 25.7766 39.3693Z" fill="#FFE502"/>
<path fill-rule="evenodd" clip-rule="evenodd" d="M28.4108 32.0521C27.6514 32.1179 26.8856 31.9705 26.1529 31.7406C21.178 30.3136 17.4109 27.3105 14.3864 23.242C13.2614 21.7325 12.1864 20.1081 11.8619 18.2046C11.4037 15.9729 12.1115 14.0045 13.8203 12.4784C14.3872 11.9536 16.0453 11.7078 16.72 12.0352C16.9367 12.2318 17.0615 12.4125 17.2032 12.6258C17.8201 14.1353 18.4779 15.5464 19.1028 17.0067C19.1946 17.3025 19.1777 17.5973 19.011 17.9089C18.6776 18.5653 18.1695 19.1226 17.6774 19.6641C17.2611 20.0248 17.2611 20.4355 17.5437 20.8453C19.3274 23.7826 21.7351 25.8827 24.9682 27.113C25.4362 27.3096 25.7946 27.2438 26.0861 26.8664C26.6441 26.2434 27.1932 25.5536 27.7111 24.8813C28.0266 24.4548 28.4518 24.389 28.9189 24.5698C29.9859 25.0621 31.0351 25.5544 32.0522 26.0134C32.3357 26.1451 32.5354 26.26 32.7841 26.3416C33.8591 26.8664 33.8591 26.9489 33.7343 28.081C33.5926 30.3127 31.8508 31.4448 29.8585 32.0021C29.3192 32.1179 28.8851 32.1179 28.4108 32.0521Z" fill="#FFE502"/>
</svg>
