<svg width="39" height="46" viewBox="0 0 39 46" fill="none" xmlns="http://www.w3.org/2000/svg">
<path d="M38.5059 42.3635L36.7576 44.6442C36.1567 45.4293 35.2485 45.9189 34.2643 45.981C32.0478 46.1227 27.2839 45.5451 20.8178 41.7797C11.5537 36.3846 4.61736 27.6855 1.50547 17.387C-0.61534 10.3667 -0.0595987 5.7087 0.561539 3.58182C0.839716 2.63161 1.51429 1.84903 2.40854 1.4322L5.00695 0.222007C6.0925 -0.283469 7.38201 0.0993029 8.02009 1.11526L14.5171 11.4656C15.2187 12.5822 14.8859 14.0594 13.7745 14.7642L10.8853 16.5976C10.5316 16.8216 10.3668 17.2517 10.4794 17.6559C10.5159 17.7875 10.5587 17.9362 10.6078 18.1013C12.485 24.3839 16.7108 29.6998 22.3929 32.9275C22.542 33.0123 22.6773 33.0875 22.7969 33.1521C23.1644 33.3513 23.6181 33.285 23.9132 32.9882L26.3298 30.559C27.2586 29.6252 28.7652 29.6252 29.6947 30.559L38.3031 39.2126C39.1484 40.0627 39.2353 41.4114 38.5059 42.3635Z" fill="white"/>
</svg>
