<svg width="39" height="32" viewBox="0 0 39 32" fill="none" xmlns="http://www.w3.org/2000/svg">
<path d="M36.1056 0.125063L0.820414 13.6624C-0.32351 14.1013 -0.254055 15.716 0.923889 16.0572L9.88959 18.664L13.2363 29.118C13.5857 30.21 14.9905 30.5407 15.8041 29.7229L20.4408 25.0625L29.5369 31.6362C30.6496 32.4407 32.2351 31.8427 32.5179 30.5121L38.5416 2.15627C38.8364 0.767015 37.4494 -0.390586 36.1056 0.125063ZM31.6816 6.41822L15.2931 20.6875C15.1287 20.8292 15.0252 21.0267 15.0004 21.2395L14.3696 26.7623C14.349 26.943 14.0939 26.9667 14.0393 26.7937L11.4418 18.5573C11.3234 18.1805 11.4786 17.7716 11.8195 17.5636L31.1734 5.74558C31.6185 5.47346 32.0742 6.07632 31.6816 6.41822Z" fill="#017C85"/>
</svg>
