<svg width="366" height="36" viewBox="0 0 366 36" fill="none" xmlns="http://www.w3.org/2000/svg">
<path d="M11.2246 23.0566V25H3.67578V23.0566H11.2246ZM4.36914 10.7812V25H1.91797V10.7812H4.36914ZM10.2383 16.7188V18.6328H3.67578V16.7188H10.2383ZM11.1758 10.7812V12.7344H3.67578V10.7812H11.1758ZM14.7891 14.4336L16.8008 17.9395L18.8516 14.4336H21.4395L18.2363 19.6191L21.5664 25H18.9785L16.8301 21.3477L14.6816 25H12.084L15.4043 19.6191L12.2109 14.4336H14.7891ZM27.1719 23.3203C27.556 23.3203 27.901 23.2454 28.207 23.0957C28.5195 22.9395 28.7702 22.7246 28.959 22.4512C29.1543 22.1777 29.2617 21.862 29.2812 21.5039H31.498C31.485 22.1875 31.2832 22.8092 30.8926 23.3691C30.502 23.929 29.9844 24.375 29.3398 24.707C28.6953 25.0326 27.9824 25.1953 27.2012 25.1953C26.3939 25.1953 25.6908 25.0586 25.0918 24.7852C24.4928 24.5052 23.9948 24.1211 23.5977 23.6328C23.2005 23.1445 22.901 22.5814 22.6992 21.9434C22.5039 21.3053 22.4062 20.6217 22.4062 19.8926V19.5508C22.4062 18.8216 22.5039 18.138 22.6992 17.5C22.901 16.8555 23.2005 16.2891 23.5977 15.8008C23.9948 15.3125 24.4928 14.9316 25.0918 14.6582C25.6908 14.3783 26.3906 14.2383 27.1914 14.2383C28.0378 14.2383 28.7799 14.4076 29.418 14.7461C30.056 15.0781 30.5573 15.5436 30.9219 16.1426C31.293 16.735 31.485 17.4251 31.498 18.2129H29.2812C29.2617 17.8223 29.1641 17.4707 28.9883 17.1582C28.819 16.8392 28.5781 16.5853 28.2656 16.3965C27.9596 16.2077 27.5918 16.1133 27.1621 16.1133C26.6868 16.1133 26.293 16.2109 25.9805 16.4062C25.668 16.5951 25.4238 16.8555 25.248 17.1875C25.0723 17.513 24.9453 17.8809 24.8672 18.291C24.7956 18.6947 24.7598 19.1146 24.7598 19.5508V19.8926C24.7598 20.3288 24.7956 20.752 24.8672 21.1621C24.9388 21.5723 25.0625 21.9401 25.2383 22.2656C25.4206 22.5846 25.668 22.8418 25.9805 23.0371C26.293 23.2259 26.6901 23.3203 27.1719 23.3203ZM37.9629 25.1953C37.1816 25.1953 36.4753 25.0684 35.8438 24.8145C35.2188 24.554 34.6849 24.1927 34.2422 23.7305C33.806 23.2682 33.4707 22.7246 33.2363 22.0996C33.002 21.4746 32.8848 20.8008 32.8848 20.0781V19.6875C32.8848 18.8607 33.0052 18.112 33.2461 17.4414C33.487 16.7708 33.8223 16.1979 34.252 15.7227C34.6816 15.2409 35.1895 14.873 35.7754 14.6191C36.3613 14.3652 36.9961 14.2383 37.6797 14.2383C38.4349 14.2383 39.0957 14.3652 39.6621 14.6191C40.2285 14.873 40.6973 15.2311 41.0684 15.6934C41.446 16.1491 41.7259 16.6927 41.9082 17.3242C42.097 17.9557 42.1914 18.6523 42.1914 19.4141V20.4199H34.0273V18.7305H39.8672V18.5449C39.8542 18.1217 39.7695 17.7246 39.6133 17.3535C39.4635 16.9824 39.2324 16.6829 38.9199 16.4551C38.6074 16.2272 38.1908 16.1133 37.6699 16.1133C37.2793 16.1133 36.931 16.1979 36.625 16.3672C36.3255 16.5299 36.0749 16.7676 35.873 17.0801C35.6712 17.3926 35.515 17.7702 35.4043 18.2129C35.3001 18.6491 35.248 19.1406 35.248 19.6875V20.0781C35.248 20.5404 35.3099 20.9701 35.4336 21.3672C35.5638 21.7578 35.7526 22.0996 36 22.3926C36.2474 22.6855 36.5469 22.9167 36.8984 23.0859C37.25 23.2487 37.6504 23.3301 38.0996 23.3301C38.666 23.3301 39.1706 23.2161 39.6133 22.9883C40.056 22.7604 40.4401 22.4382 40.7656 22.0215L42.0059 23.2227C41.778 23.5547 41.4818 23.8737 41.1172 24.1797C40.7526 24.4792 40.3066 24.7233 39.7793 24.9121C39.2585 25.1009 38.653 25.1953 37.9629 25.1953ZM46.5469 10V25H44.1836V10H46.5469ZM51.6445 10V25H49.2812V10H51.6445ZM58.8809 25.1953C58.0996 25.1953 57.3932 25.0684 56.7617 24.8145C56.1367 24.554 55.6029 24.1927 55.1602 23.7305C54.724 23.2682 54.3887 22.7246 54.1543 22.0996C53.9199 21.4746 53.8027 20.8008 53.8027 20.0781V19.6875C53.8027 18.8607 53.9232 18.112 54.1641 17.4414C54.4049 16.7708 54.7402 16.1979 55.1699 15.7227C55.5996 15.2409 56.1074 14.873 56.6934 14.6191C57.2793 14.3652 57.9141 14.2383 58.5977 14.2383C59.3529 14.2383 60.0137 14.3652 60.5801 14.6191C61.1465 14.873 61.6152 15.2311 61.9863 15.6934C62.3639 16.1491 62.6439 16.6927 62.8262 17.3242C63.015 17.9557 63.1094 18.6523 63.1094 19.4141V20.4199H54.9453V18.7305H60.7852V18.5449C60.7721 18.1217 60.6875 17.7246 60.5312 17.3535C60.3815 16.9824 60.1504 16.6829 59.8379 16.4551C59.5254 16.2272 59.1087 16.1133 58.5879 16.1133C58.1973 16.1133 57.849 16.1979 57.543 16.3672C57.2435 16.5299 56.9928 16.7676 56.791 17.0801C56.5892 17.3926 56.4329 17.7702 56.3223 18.2129C56.2181 18.6491 56.166 19.1406 56.166 19.6875V20.0781C56.166 20.5404 56.2279 20.9701 56.3516 21.3672C56.4818 21.7578 56.6706 22.0996 56.918 22.3926C57.1654 22.6855 57.4648 22.9167 57.8164 23.0859C58.168 23.2487 58.5684 23.3301 59.0176 23.3301C59.584 23.3301 60.0885 23.2161 60.5312 22.9883C60.974 22.7604 61.3581 22.4382 61.6836 22.0215L62.9238 23.2227C62.696 23.5547 62.3997 23.8737 62.0352 24.1797C61.6706 24.4792 61.2246 24.7233 60.6973 24.9121C60.1764 25.1009 59.571 25.1953 58.8809 25.1953ZM67.2793 16.6895V25H64.9258V14.4336H67.1426L67.2793 16.6895ZM66.8594 19.3262L66.0977 19.3164C66.1042 18.5677 66.2083 17.8809 66.4102 17.2559C66.6185 16.6309 66.9049 16.0938 67.2695 15.6445C67.6406 15.1953 68.0833 14.8503 68.5977 14.6094C69.112 14.362 69.6849 14.2383 70.3164 14.2383C70.8242 14.2383 71.2832 14.3099 71.6934 14.4531C72.11 14.5898 72.4648 14.8145 72.7578 15.127C73.0573 15.4395 73.2852 15.8464 73.4414 16.3477C73.5977 16.8424 73.6758 17.4512 73.6758 18.1738V25H71.3125V18.1641C71.3125 17.6562 71.2376 17.2559 71.0879 16.9629C70.9447 16.6634 70.7331 16.4518 70.4531 16.3281C70.1797 16.1979 69.8379 16.1328 69.4277 16.1328C69.0241 16.1328 68.6628 16.2174 68.3438 16.3867C68.0247 16.556 67.7546 16.7871 67.5332 17.0801C67.3184 17.373 67.1523 17.7116 67.0352 18.0957C66.918 18.4798 66.8594 18.89 66.8594 19.3262ZM80.9219 14.4336V16.1523H74.9648V14.4336H80.9219ZM76.6836 11.8457H79.0371V22.0801C79.0371 22.4056 79.0827 22.6562 79.1738 22.832C79.2715 23.0013 79.4049 23.1152 79.5742 23.1738C79.7435 23.2324 79.9421 23.2617 80.1699 23.2617C80.3327 23.2617 80.4889 23.252 80.6387 23.2324C80.7884 23.2129 80.9089 23.1934 81 23.1738L81.0098 24.9707C80.8145 25.0293 80.5866 25.0814 80.3262 25.127C80.0723 25.1725 79.7793 25.1953 79.4473 25.1953C78.9069 25.1953 78.4284 25.1009 78.0117 24.9121C77.5951 24.7168 77.2695 24.401 77.0352 23.9648C76.8008 23.5286 76.6836 22.9492 76.6836 22.2266V11.8457Z" fill="#2E2E2E"/>
<rect width="31" height="32" transform="translate(98)" fill="#00B67A"/>
<path d="M113.5 5L116.215 13.4033L125 13.4033L113.977 21.8065L118.432 20.636L120.607 27L113.5 21.8065L106.393 27L109.107 18.5967L102 13.4033L110.785 13.4033L113.5 5Z" fill="white"/>
<rect width="31" height="32" transform="translate(131)" fill="#00B67A"/>
<path d="M146.5 5L149.215 13.4033L158 13.4033L146.977 21.8065L151.432 20.636L153.607 27L146.5 21.8065L139.393 27L142.107 18.5967L135 13.4033L143.785 13.4033L146.5 5Z" fill="white"/>
<rect width="31" height="32" transform="translate(164)" fill="#00B67A"/>
<path d="M179.5 5L182.215 13.4033L191 13.4033L179.977 21.8065L184.432 20.636L186.607 27L179.5 21.8065L172.393 27L175.107 18.5967L168 13.4033L176.785 13.4033L179.5 5Z" fill="white"/>
<rect width="32" height="32" transform="translate(197)" fill="#00B67A"/>
<path d="M213 5L215.833 13.4033L225 13.4033L213.498 21.8065L218.147 20.636L220.416 27L213 21.8065L205.584 27L208.416 18.5967L201 13.4033L210.167 13.4033L213 5Z" fill="white"/>
<rect width="16" height="32" transform="translate(247)" fill="#DCDCE6"/>
<rect width="16" height="32" transform="translate(231)" fill="#00B67A"/>
<path d="M247 5L249.833 13.4033L259 13.4033L247.498 21.8065L252.147 20.636L254.416 27L247 21.8065L239.584 27L242.416 18.5967L235 13.4033L244.167 13.4033L247 5Z" fill="white"/>
<path d="M286.748 10.7812V25H284.316V10.7812H286.748ZM291.211 10.7812V12.7344H279.893V10.7812H291.211ZM294.512 16.4453V25H292.158V14.4336H294.404L294.512 16.4453ZM297.744 14.3652L297.725 16.5527C297.581 16.5267 297.425 16.5072 297.256 16.4941C297.093 16.4811 296.93 16.4746 296.768 16.4746C296.364 16.4746 296.009 16.5332 295.703 16.6504C295.397 16.7611 295.14 16.9238 294.932 17.1387C294.73 17.347 294.574 17.6009 294.463 17.9004C294.352 18.1999 294.287 18.5352 294.268 18.9062L293.73 18.9453C293.73 18.2812 293.796 17.666 293.926 17.0996C294.056 16.5332 294.251 16.0352 294.512 15.6055C294.779 15.1758 295.111 14.8405 295.508 14.5996C295.911 14.3587 296.377 14.2383 296.904 14.2383C297.048 14.2383 297.201 14.2513 297.363 14.2773C297.533 14.3034 297.66 14.3327 297.744 14.3652ZM305.576 22.5098V14.4336H307.939V25H305.713L305.576 22.5098ZM305.908 20.3125L306.699 20.293C306.699 21.0026 306.621 21.6569 306.465 22.2559C306.309 22.8483 306.068 23.3659 305.742 23.8086C305.417 24.2448 305 24.5866 304.492 24.834C303.984 25.0749 303.376 25.1953 302.666 25.1953C302.152 25.1953 301.68 25.1204 301.25 24.9707C300.82 24.821 300.449 24.5898 300.137 24.2773C299.831 23.9648 299.593 23.5579 299.424 23.0566C299.255 22.5553 299.17 21.9564 299.17 21.2598V14.4336H301.523V21.2793C301.523 21.6634 301.569 21.9857 301.66 22.2461C301.751 22.5 301.875 22.7051 302.031 22.8613C302.188 23.0176 302.37 23.1283 302.578 23.1934C302.786 23.2585 303.008 23.291 303.242 23.291C303.913 23.291 304.44 23.1608 304.824 22.9004C305.215 22.6335 305.492 22.2754 305.654 21.8262C305.824 21.377 305.908 20.8724 305.908 20.3125ZM316.279 22.1387C316.279 21.9043 316.221 21.6927 316.104 21.5039C315.986 21.3086 315.762 21.1328 315.43 20.9766C315.104 20.8203 314.622 20.6771 313.984 20.5469C313.424 20.4232 312.91 20.2767 312.441 20.1074C311.979 19.9316 311.582 19.7201 311.25 19.4727C310.918 19.2253 310.661 18.9323 310.479 18.5938C310.296 18.2552 310.205 17.8646 310.205 17.4219C310.205 16.9922 310.299 16.5853 310.488 16.2012C310.677 15.8171 310.947 15.4785 311.299 15.1855C311.65 14.8926 312.077 14.6615 312.578 14.4922C313.086 14.3229 313.652 14.2383 314.277 14.2383C315.163 14.2383 315.921 14.388 316.553 14.6875C317.191 14.9805 317.679 15.3809 318.018 15.8887C318.356 16.39 318.525 16.9564 318.525 17.5879H316.172C316.172 17.3079 316.1 17.0475 315.957 16.8066C315.82 16.5592 315.612 16.3607 315.332 16.2109C315.052 16.0547 314.701 15.9766 314.277 15.9766C313.874 15.9766 313.538 16.0417 313.271 16.1719C313.011 16.2956 312.816 16.4583 312.686 16.6602C312.562 16.862 312.5 17.0833 312.5 17.3242C312.5 17.5 312.533 17.6595 312.598 17.8027C312.669 17.9395 312.786 18.0664 312.949 18.1836C313.112 18.2943 313.333 18.3984 313.613 18.4961C313.9 18.5938 314.258 18.6882 314.688 18.7793C315.495 18.9486 316.188 19.1667 316.768 19.4336C317.354 19.694 317.803 20.0326 318.115 20.4492C318.428 20.8594 318.584 21.3802 318.584 22.0117C318.584 22.4805 318.483 22.9102 318.281 23.3008C318.086 23.6849 317.799 24.0202 317.422 24.3066C317.044 24.5866 316.592 24.8047 316.064 24.9609C315.544 25.1172 314.958 25.1953 314.307 25.1953C313.35 25.1953 312.539 25.026 311.875 24.6875C311.211 24.3424 310.706 23.903 310.361 23.3691C310.023 22.8288 309.854 22.2689 309.854 21.6895H312.129C312.155 22.1257 312.275 22.474 312.49 22.7344C312.712 22.9883 312.985 23.1738 313.311 23.291C313.643 23.4017 313.984 23.457 314.336 23.457C314.759 23.457 315.114 23.4017 315.4 23.291C315.687 23.1738 315.905 23.0176 316.055 22.8223C316.204 22.6204 316.279 22.3926 316.279 22.1387ZM325.488 14.4336V16.1523H319.531V14.4336H325.488ZM321.25 11.8457H323.604V22.0801C323.604 22.4056 323.649 22.6562 323.74 22.832C323.838 23.0013 323.971 23.1152 324.141 23.1738C324.31 23.2324 324.508 23.2617 324.736 23.2617C324.899 23.2617 325.055 23.252 325.205 23.2324C325.355 23.2129 325.475 23.1934 325.566 23.1738L325.576 24.9707C325.381 25.0293 325.153 25.0814 324.893 25.127C324.639 25.1725 324.346 25.1953 324.014 25.1953C323.473 25.1953 322.995 25.1009 322.578 24.9121C322.161 24.7168 321.836 24.401 321.602 23.9648C321.367 23.5286 321.25 22.9492 321.25 22.2266V11.8457ZM329.668 16.4648V29.0625H327.314V14.4336H329.482L329.668 16.4648ZM336.553 19.6191V19.8242C336.553 20.5924 336.462 21.3053 336.279 21.9629C336.104 22.6139 335.84 23.1836 335.488 23.6719C335.143 24.1536 334.717 24.528 334.209 24.7949C333.701 25.0618 333.115 25.1953 332.451 25.1953C331.794 25.1953 331.217 25.0749 330.723 24.834C330.234 24.5866 329.821 24.2383 329.482 23.7891C329.144 23.3398 328.87 22.8125 328.662 22.207C328.46 21.5951 328.317 20.9245 328.232 20.1953V19.4043C328.317 18.6296 328.46 17.9264 328.662 17.2949C328.87 16.6634 329.144 16.1198 329.482 15.6641C329.821 15.2083 330.234 14.8568 330.723 14.6094C331.211 14.362 331.781 14.2383 332.432 14.2383C333.096 14.2383 333.685 14.3685 334.199 14.6289C334.714 14.8828 335.146 15.2474 335.498 15.7227C335.85 16.1914 336.113 16.7578 336.289 17.4219C336.465 18.0794 336.553 18.8118 336.553 19.6191ZM334.199 19.8242V19.6191C334.199 19.1309 334.154 18.6784 334.062 18.2617C333.971 17.8385 333.828 17.4674 333.633 17.1484C333.438 16.8294 333.187 16.582 332.881 16.4062C332.581 16.224 332.22 16.1328 331.797 16.1328C331.38 16.1328 331.022 16.2044 330.723 16.3477C330.423 16.4844 330.173 16.6764 329.971 16.9238C329.769 17.1712 329.613 17.4609 329.502 17.793C329.391 18.1185 329.313 18.4733 329.268 18.8574V20.752C329.346 21.2207 329.479 21.6504 329.668 22.041C329.857 22.4316 330.124 22.7441 330.469 22.9785C330.82 23.2064 331.27 23.3203 331.816 23.3203C332.24 23.3203 332.601 23.2292 332.9 23.0469C333.2 22.8646 333.444 22.6139 333.633 22.2949C333.828 21.9694 333.971 21.5951 334.062 21.1719C334.154 20.7487 334.199 20.2995 334.199 19.8242ZM341.074 14.4336V25H338.711V14.4336H341.074ZM338.555 11.6602C338.555 11.3021 338.672 11.0059 338.906 10.7715C339.147 10.5306 339.479 10.4102 339.902 10.4102C340.319 10.4102 340.648 10.5306 340.889 10.7715C341.13 11.0059 341.25 11.3021 341.25 11.6602C341.25 12.0117 341.13 12.3047 340.889 12.5391C340.648 12.7734 340.319 12.8906 339.902 12.8906C339.479 12.8906 339.147 12.7734 338.906 12.5391C338.672 12.3047 338.555 12.0117 338.555 11.6602ZM346.172 10V25H343.809V10H346.172ZM348.301 19.834V19.6094C348.301 18.8477 348.411 18.1413 348.633 17.4902C348.854 16.8327 349.173 16.263 349.59 15.7812C350.013 15.293 350.527 14.9154 351.133 14.6484C351.745 14.375 352.435 14.2383 353.203 14.2383C353.978 14.2383 354.668 14.375 355.273 14.6484C355.885 14.9154 356.403 15.293 356.826 15.7812C357.249 16.263 357.572 16.8327 357.793 17.4902C358.014 18.1413 358.125 18.8477 358.125 19.6094V19.834C358.125 20.5957 358.014 21.3021 357.793 21.9531C357.572 22.6042 357.249 23.1738 356.826 23.6621C356.403 24.1439 355.889 24.5215 355.283 24.7949C354.678 25.0618 353.991 25.1953 353.223 25.1953C352.448 25.1953 351.755 25.0618 351.143 24.7949C350.537 24.5215 350.023 24.1439 349.6 23.6621C349.176 23.1738 348.854 22.6042 348.633 21.9531C348.411 21.3021 348.301 20.5957 348.301 19.834ZM350.654 19.6094V19.834C350.654 20.3092 350.703 20.7585 350.801 21.1816C350.898 21.6048 351.051 21.9759 351.26 22.2949C351.468 22.6139 351.735 22.8646 352.061 23.0469C352.386 23.2292 352.773 23.3203 353.223 23.3203C353.659 23.3203 354.036 23.2292 354.355 23.0469C354.681 22.8646 354.948 22.6139 355.156 22.2949C355.365 21.9759 355.518 21.6048 355.615 21.1816C355.719 20.7585 355.771 20.3092 355.771 19.834V19.6094C355.771 19.1406 355.719 18.6979 355.615 18.2812C355.518 17.8581 355.361 17.4837 355.146 17.1582C354.938 16.8327 354.671 16.5788 354.346 16.3965C354.027 16.2077 353.646 16.1133 353.203 16.1133C352.76 16.1133 352.376 16.2077 352.051 16.3965C351.732 16.5788 351.468 16.8327 351.26 17.1582C351.051 17.4837 350.898 17.8581 350.801 18.2812C350.703 18.6979 350.654 19.1406 350.654 19.6094ZM364.941 14.4336V16.1523H358.984V14.4336H364.941ZM360.703 11.8457H363.057V22.0801C363.057 22.4056 363.102 22.6562 363.193 22.832C363.291 23.0013 363.424 23.1152 363.594 23.1738C363.763 23.2324 363.962 23.2617 364.189 23.2617C364.352 23.2617 364.508 23.252 364.658 23.2324C364.808 23.2129 364.928 23.1934 365.02 23.1738L365.029 24.9707C364.834 25.0293 364.606 25.0814 364.346 25.127C364.092 25.1725 363.799 25.1953 363.467 25.1953C362.926 25.1953 362.448 25.1009 362.031 24.9121C361.615 24.7168 361.289 24.401 361.055 23.9648C360.82 23.5286 360.703 22.9492 360.703 22.2266V11.8457Z" fill="#2E2E2E"/>
</svg>
