<svg width="33" height="32" viewBox="0 0 33 32" fill="none" xmlns="http://www.w3.org/2000/svg">
<path fill-rule="evenodd" clip-rule="evenodd" d="M31.8964 12.2703C30.1405 5.02726 23.8033 0.109387 16.1618 0C15.1539 0.0364624 14.066 0.121758 13.0766 0.316442C2.36246 2.42215 -3.15199 14.0719 2.02915 23.4571C2.21433 23.7129 2.21433 23.9565 2.17729 24.2364C1.42334 26.6592 0.730872 29.1667 0.062893 31.6136C-0.0482163 32.0524 -0.0482111 32.0524 0.365803 31.93C2.98084 31.2366 5.57141 30.5789 8.1805 29.9461C8.40933 29.8731 8.57004 29.8731 8.76184 29.9825C12.1123 31.6624 15.6486 32.1123 19.3582 31.4436C28.206 29.7631 34.0108 20.8891 31.8964 12.2703ZM18.431 28.8867C17.6585 29.0325 16.9343 29.1061 16.5699 29.0449C13.7201 29.0449 11.4265 28.4361 9.29357 27.2192C8.99066 27.0369 8.76184 26.9757 8.47084 27.0851C7.01186 27.438 5.58993 27.8156 4.14352 28.1809C3.84657 28.2786 3.81615 28.2297 3.8836 27.925C4.26653 26.6104 4.62565 25.2711 5.04562 23.9076C5.13821 23.5423 5.11374 23.2747 4.8783 22.97C1.9544 18.2957 2.08403 12.5131 5.35448 8.17995C8.76117 3.70028 13.441 1.8381 18.9984 3.0062C24.4818 4.13849 27.9943 7.65645 29.243 13.0242C31.0181 20.3779 25.9739 27.6815 18.431 28.8867Z" fill="#017C85"/>
<path fill-rule="evenodd" clip-rule="evenodd" d="M20.3852 23.4576C19.8218 23.5065 19.2536 23.3971 18.71 23.2265C15.0189 22.1678 12.224 19.9397 9.97998 16.9211C9.14534 15.8012 8.34773 14.596 8.107 13.1837C7.76706 11.5279 8.29217 10.0675 9.56001 8.93518C9.98064 8.54582 11.2108 8.3635 11.7114 8.60637C11.8721 8.75222 11.9647 8.88635 12.0699 9.04457C12.5276 10.1645 13.0156 11.2115 13.4793 12.2949C13.5474 12.5144 13.5348 12.7331 13.4111 12.9643C13.1638 13.4513 12.7868 13.8648 12.4217 14.2665C12.1129 14.5341 12.1129 14.8388 12.3225 15.1429C13.6459 17.3222 15.4323 18.8803 17.8311 19.7932C18.1783 19.939 18.4441 19.8902 18.6604 19.6102C19.0744 19.1479 19.4818 18.6361 19.8661 18.1374C20.1002 17.8209 20.4157 17.7721 20.7622 17.9062C21.5539 18.2715 22.3323 18.6368 23.0869 18.9773C23.2972 19.075 23.4454 19.1603 23.6299 19.2208C24.4275 19.6102 24.4275 19.6714 24.3349 20.5114C24.2298 22.1671 22.9374 23.0071 21.4593 23.4205C21.0592 23.5065 20.7371 23.5065 20.3852 23.4576Z" fill="#017C85"/>
</svg>
