<svg width="306" height="301" viewBox="0 0 306 301" fill="none" xmlns="http://www.w3.org/2000/svg">
<path d="M264.206 258.698C258.075 265.153 252.273 269.316 247.689 272.604C193.808 311.265 130.052 299.996 116.502 297.244C96.493 293.18 57.816 285.324 29.8533 252.44C-12.4521 202.69 -5.8645 124.31 26.9504 72.5705C32.9528 63.1064 64.6589 10.5785 129.102 2.15475C168.102 -2.94322 213.563 7.33882 246.485 34.9209C315.591 92.8181 310.671 209.781 264.206 258.698Z" fill="url(#paint0_linear_351_6226)"/>
<path d="M5.78082 6.02637C5.41283 4.45987 7.61657 3.41856 8.96591 4.51281C22.6687 15.6243 55.5923 48.8985 47.3871 107.047C37.0924 180.004 54.6924 206.625 76.6 222.863C76.6 222.863 46.5136 215.227 27.5846 188.214C-18.8903 121.891 12.3242 33.8803 5.78082 6.02637Z" fill="#FFE717"/>
<path d="M16.213 28.8147C17.9272 36.9365 19.4551 45.0833 20.6357 53.2666C21.8659 61.4431 22.8087 69.6481 23.4537 77.8667C24.0622 86.0868 24.4921 94.3154 24.5165 102.548C24.5838 110.779 24.2415 119.004 23.8644 127.261C23.541 135.515 23.1608 143.829 23.765 152.201C24.3592 160.556 26.118 168.985 29.6081 176.886C30.4805 178.855 31.3979 180.818 32.4402 182.715C33.4422 184.629 34.5425 186.505 35.6813 188.364C37.9809 192.073 40.5695 195.656 43.4542 199.057C49.2445 205.847 56.2278 211.87 63.9209 216.968C64.7305 217.504 65.8906 217.372 66.512 216.673C67.1221 215.987 66.9859 215.008 66.2142 214.465L66.2086 214.461C64.3782 213.176 62.567 211.874 60.8292 210.506C59.9475 209.834 59.1022 209.13 58.2418 208.44C57.4128 207.723 56.5513 207.033 55.7489 206.294C52.4822 203.386 49.4558 200.284 46.7103 197.004C41.1876 190.475 36.7665 183.199 33.417 175.656C31.7911 171.867 30.4913 167.982 29.5423 164.023C28.5967 160.063 28.0019 156.035 27.673 151.974C27.0143 143.848 27.3118 135.616 27.5666 127.361C27.8091 119.103 27.9869 110.804 27.769 102.511C27.673 98.3649 27.4908 94.2206 27.2226 90.0813C27.1024 88.0111 26.9358 85.9433 26.7734 83.8755C26.5881 81.809 26.3896 79.7437 26.1716 77.6803C25.2821 69.4275 24.1014 61.2023 22.6214 53.0207C21.0961 44.8452 19.32 36.7075 17.1838 28.6426C17.1226 28.412 16.8568 28.2679 16.59 28.3207C16.331 28.3718 16.1662 28.5911 16.213 28.8147Z" fill="white"/>
<path d="M38.3378 180.654C36.6577 182.436 33.703 181.924 32.6924 179.692C27.1155 167.38 14.4956 131.144 35.3379 89.3978C52.9383 54.1449 59.1319 33.3568 61.2898 23.725C61.746 21.6883 64.5372 21.4178 65.3797 23.3274C74.6748 44.3961 99.2182 116.06 38.3378 180.654Z" fill="#FFF281"/>
<path d="M35.2842 179.354C35.2245 179.365 35.163 179.37 35.0999 179.369C34.5718 179.361 34.1502 178.926 34.1583 178.398C34.1675 177.799 35.3327 117.955 57.5906 67.8323C57.805 67.35 58.3699 67.1324 58.853 67.3463C59.3357 67.5609 59.5532 68.1258 59.3389 68.6088C37.2429 118.366 36.0798 177.832 36.0707 178.427C36.0639 178.892 35.7258 179.275 35.2842 179.354Z" fill="white"/>
<path d="M157.77 196.738L152.392 244.974H214.79L206.663 196.738H157.77Z" fill="#004D52"/>
<path d="M49.1982 74.4474V188.124C49.1982 197.476 56.6502 205.123 65.9986 205.364C107.519 206.435 252.737 209.031 292.262 208.448C299.055 208.348 304.558 202.912 304.754 196.121C305.516 169.712 306.754 106.208 302.174 76.7255C301.209 70.5167 295.968 65.874 289.688 65.6732C254.899 64.5602 100.958 61.0264 61.4523 61.9136C54.6388 62.0666 49.1982 67.6322 49.1982 74.4474Z" fill="url(#paint1_linear_351_6226)"/>
<path d="M56.3267 73.8939V181.895C56.3267 187.355 60.7095 191.804 66.1688 191.885L286.571 194.608C291.984 194.689 296.42 190.335 296.44 184.922L296.809 77.8855C296.824 74.015 293.74 70.8437 289.871 70.7495L64.2195 66.1908C59.8917 66.0856 56.3267 69.565 56.3267 73.8939Z" fill="url(#paint2_linear_351_6226)"/>
<path d="M298.103 199.084C298.101 199.084 298.099 199.084 298.097 199.084L56.3237 194.964C56.1282 194.961 55.9723 194.8 55.9756 194.604C55.9788 194.409 56.1383 194.254 56.3358 194.256L298.109 198.375C298.304 198.379 298.46 198.54 298.457 198.736C298.454 198.929 298.296 199.084 298.103 199.084Z" fill="white"/>
<path d="M228.237 254.842H136.912C134.431 254.842 132.568 253.076 133.048 251.179L134.22 246.544C134.572 245.15 136.105 244.127 137.926 244.07L225.967 241.323C227.869 241.264 229.554 242.274 229.968 243.722L232.081 251.104C232.63 253.022 230.758 254.842 228.237 254.842Z" fill="#006870"/>
<path d="M56.3267 73.8939V181.895C56.3267 187.355 60.7095 191.804 66.1688 191.885L286.571 194.608C291.984 194.689 296.42 190.335 296.44 184.922L296.809 77.8855C296.824 74.015 293.74 70.8437 289.871 70.7495L64.2195 66.1908C59.8917 66.0856 56.3267 69.565 56.3267 73.8939Z" fill="#017C85"/>
<path d="M296.77 90.4051L296.813 77.8618C296.827 73.9914 293.744 70.8318 289.874 70.7377L64.2809 66.1848C59.9532 66.0796 56.4458 69.5649 56.4458 73.8937V90.4051H296.77Z" fill="url(#paint3_linear_351_6226)"/>
<path d="M70.842 83.4618C72.269 83.4618 73.4257 82.305 73.4257 80.878C73.4257 79.4511 72.269 78.2943 70.842 78.2943C69.4151 78.2943 68.2583 79.4511 68.2583 80.878C68.2583 82.305 69.4151 83.4618 70.842 83.4618Z" fill="white"/>
<path d="M79.7927 83.4618C81.2197 83.4618 82.3764 82.305 82.3764 80.878C82.3764 79.4511 81.2197 78.2943 79.7927 78.2943C78.3658 78.2943 77.209 79.4511 77.209 80.878C77.209 82.305 78.3658 83.4618 79.7927 83.4618Z" fill="white"/>
<path d="M88.4714 83.4618C89.8984 83.4618 91.0551 82.305 91.0551 80.878C91.0551 79.4511 89.8984 78.2943 88.4714 78.2943C87.0445 78.2943 85.8877 79.4511 85.8877 80.878C85.8877 82.305 87.0445 83.4618 88.4714 83.4618Z" fill="white"/>
<path d="M283.372 188.703L71.5126 185.649C68.2925 185.603 65.7065 182.979 65.7065 179.759V158.555C65.7065 155.558 68.1538 153.139 71.1502 153.173L283.507 155.587C285.945 155.615 287.907 157.6 287.907 160.038V184.233C287.907 186.727 285.866 188.739 283.372 188.703Z" fill="white" fill-opacity="0.29"/>
<path d="M207.099 150.523L71.6695 148.575C68.3624 148.527 65.7065 145.833 65.7065 142.525V100.6C65.7065 98.2322 67.6259 96.3127 69.9937 96.3127H206.198C208.916 96.3127 211.12 98.5165 211.12 101.235V146.56C211.12 148.771 209.31 150.555 207.099 150.523Z" fill="white" fill-opacity="0.51"/>
<path opacity="0.42" d="M286.564 150.58H216.041C215.353 150.58 214.795 150.022 214.795 149.334V97.8638C214.795 97.0066 215.49 96.3118 216.347 96.3118H286.978C287.495 96.3118 287.915 96.731 287.915 97.2482V149.229C287.915 149.975 287.31 150.58 286.564 150.58Z" fill="white"/>
<path d="M13.7078 268.291C13.7078 270.009 15.1142 271.414 16.8331 271.414H185.834C187.553 271.414 188.959 270.009 188.959 268.291L190.365 171.171C190.365 169.454 188.342 166.102 184.634 166.354L19.4681 162.08C17.3114 162.024 15.2261 162.854 13.6989 164.377C12.1716 165.899 11.336 167.98 11.387 170.135L13.7078 268.291Z" fill="url(#paint4_linear_351_6226)"/>
<path d="M16.795 265.296C16.795 266.922 18.1256 268.253 19.7517 268.253H181.76C183.386 268.253 184.717 266.922 184.717 265.296L186.044 177.13C185.887 171.824 181.236 169.917 178.416 170.03L20.1194 165.783C18.6042 165.742 17.1393 166.326 16.0661 167.396C14.9929 168.467 14.4028 169.932 14.4407 171.447L16.795 265.296Z" fill="#017C85"/>
<path d="M0.610869 279.477H198.634C198.97 279.477 199.245 279.202 199.245 278.866V271.554C199.245 271.218 198.97 270.943 198.634 270.943H0.610869C0.274966 270.943 0 271.218 0 271.554V278.866C0.000108042 279.202 0.274966 279.477 0.610869 279.477Z" fill="#004D52"/>
<path d="M185.911 186.02L186.044 177.186C185.887 171.88 181.236 169.945 178.416 170.058L20.1193 165.796C18.6041 165.756 17.1391 166.332 16.066 167.403C14.9929 168.473 14.4028 169.992 14.4407 171.507L14.8035 186.02H185.911V186.02Z" fill="url(#paint5_linear_351_6226)"/>
<path d="M182.978 223.412C182.978 223.412 182.974 223.412 182.972 223.412C182.732 223.409 182.541 223.212 182.545 222.973L182.65 215.822C182.653 215.585 182.847 215.396 183.083 215.396H183.089C183.329 215.399 183.52 215.596 183.516 215.835L183.411 222.985C183.408 223.223 183.214 223.412 182.978 223.412Z" fill="white"/>
<path d="M183.228 205.891C183.226 205.891 183.224 205.891 183.222 205.891C182.982 205.887 182.791 205.69 182.795 205.451L183.197 178.066C183.189 176.439 182.695 175.14 181.729 174.214C179.925 172.486 177.061 172.574 176.941 172.58L126.345 171.223C126.106 171.217 125.918 171.018 125.924 170.778C125.93 170.539 126.114 170.335 126.369 170.357L176.934 171.714C177.248 171.695 180.298 171.642 182.329 173.588C183.471 174.683 184.055 176.191 184.063 178.07L183.661 205.464C183.658 205.701 183.464 205.891 183.228 205.891Z" fill="white"/>
<path d="M114.224 230.936H25.7459C23.4691 230.936 21.6235 229.09 21.6235 226.814V194.45C21.6235 192.173 23.4692 190.327 25.7459 190.327H114.224C116.5 190.327 118.346 192.173 118.346 194.45V226.814C118.346 229.09 116.5 230.936 114.224 230.936Z" fill="white" fill-opacity="0.5"/>
<path d="M178.269 230.936H126.339C124.708 230.936 123.386 229.614 123.386 227.983V193.281C123.386 191.649 124.708 190.327 126.339 190.327H178.269C179.9 190.327 181.222 191.649 181.222 193.281V227.983C181.222 229.614 179.9 230.936 178.269 230.936Z" fill="white" fill-opacity="0.5"/>
<path d="M177.598 264.408H25.2538C23.2489 264.408 21.6235 262.783 21.6235 260.778V240.473C21.6235 238.468 23.2488 236.843 25.2538 236.843H177.598C179.603 236.843 181.228 238.468 181.228 240.473V260.778C181.228 262.783 179.603 264.408 177.598 264.408Z" fill="white" fill-opacity="0.5"/>
<path d="M24.8296 176.103C25.0876 175.011 24.411 173.916 23.3184 173.658C22.2258 173.4 21.1309 174.076 20.8729 175.169C20.6149 176.262 21.2915 177.356 22.3841 177.614C23.4767 177.872 24.5716 177.196 24.8296 176.103Z" fill="white"/>
<path d="M29.6466 177.851C30.7693 177.851 31.6794 176.941 31.6794 175.818C31.6794 174.695 30.7693 173.785 29.6466 173.785C28.5239 173.785 27.6138 174.695 27.6138 175.818C27.6138 176.941 28.5239 177.851 29.6466 177.851Z" fill="white"/>
<path d="M36.7525 178.075C37.7898 177.645 38.2824 176.456 37.8527 175.419C37.4231 174.381 36.2339 173.889 35.1966 174.319C34.1593 174.748 33.6667 175.937 34.0963 176.975C34.526 178.012 35.7152 178.504 36.7525 178.075Z" fill="white"/>
<path d="M208.903 180.417C208.543 197.43 207.374 256.117 207.932 276.914C207.991 279.117 209.501 280.885 211.384 280.958C220.698 281.314 254.845 282.218 270.081 281.47C273.254 281.314 275.778 278.308 275.844 274.593C276.16 256.735 276.859 206.507 275.199 183.497C274.999 180.74 273.15 178.545 270.797 178.269C260.653 177.082 226.359 174.18 213.196 175.18C210.822 175.36 208.962 177.635 208.903 180.417Z" fill="url(#paint6_linear_351_6226)"/>
<path d="M213.057 185.636C212.556 199.369 210.974 245.054 211.476 261.947C211.549 264.417 213.213 266.413 215.321 266.558C224.002 267.152 253.619 268.462 266.351 267.27C268.644 267.055 270.443 264.886 270.567 262.199C271.212 248.189 273.065 205.649 272.584 188.945C272.507 186.28 270.742 184.104 268.472 183.866C259.081 182.879 227.61 180.532 216.79 181.223C214.759 181.353 213.144 183.259 213.057 185.636Z" fill="#4BA2A8"/>
<path opacity="0.5" d="M231.929 178.152C231.929 178.674 232.277 179.105 232.723 179.132C234.923 179.267 241.12 179.648 243.89 179.836C244.436 179.873 244.865 179.299 244.761 178.671L244.744 178.563C244.673 178.135 244.369 177.812 243.997 177.772C242.125 177.571 236.475 177.015 232.732 177.171C232.283 177.19 231.929 177.626 231.929 178.152Z" fill="white"/>
<path d="M272.665 194.143C272.657 192.297 272.633 190.483 272.589 188.963C272.512 186.298 270.748 184.114 268.478 183.875C259.087 182.889 227.616 180.537 216.796 181.228C214.765 181.358 213.149 183.279 213.063 185.656C212.985 187.787 212.929 189.465 212.811 192.788L272.665 194.143Z" fill="url(#paint7_linear_351_6226)"/>
<path d="M242.31 223.412H217.833C216.386 223.412 215.213 222.205 215.213 220.715V199.222C215.213 197.86 216.302 196.766 217.624 196.798L242.327 197.406C243.686 197.44 244.771 198.584 244.771 199.983V220.878C244.771 222.278 243.669 223.412 242.31 223.412Z" fill="white" fill-opacity="0.41"/>
<path d="M266.849 223.412H250.252C248.419 223.412 246.934 221.926 246.934 220.093V200.055C246.934 198.625 248.093 197.466 249.523 197.466H267.024C268.463 197.466 269.63 198.632 269.63 200.072V220.631C269.63 222.167 268.385 223.412 266.849 223.412Z" fill="white" fill-opacity="0.41"/>
<path d="M266.963 244.473H217.296C215.663 244.473 214.339 243.149 214.339 241.516V229.214C214.339 227.889 215.413 226.814 216.738 226.814H266.844C268.385 226.814 269.635 228.064 269.635 229.605V241.801C269.635 243.277 268.439 244.473 266.963 244.473Z" fill="white" fill-opacity="0.41"/>
<path d="M263.898 264.407L216.83 263.751C215.435 263.731 214.315 262.714 214.315 261.465V250.071C214.315 248.972 215.311 248.081 216.539 248.081H266.055C267.229 248.081 268.182 248.932 268.185 249.982L268.217 260.592C268.223 262.721 266.277 264.44 263.898 264.407Z" fill="white" fill-opacity="0.41"/>
<path d="M217.964 190.204C218.881 190.204 219.625 189.46 219.625 188.543C219.625 187.625 218.881 186.882 217.964 186.882C217.047 186.882 216.303 187.625 216.303 188.543C216.303 189.46 217.047 190.204 217.964 190.204Z" fill="white"/>
<path d="M223.502 190.365C224.419 190.365 225.163 189.621 225.163 188.704C225.163 187.786 224.419 187.043 223.502 187.043C222.584 187.043 221.84 187.786 221.84 188.704C221.84 189.621 222.584 190.365 223.502 190.365Z" fill="white"/>
<path d="M228.666 190.673C229.584 190.673 230.327 189.929 230.327 189.011C230.327 188.094 229.584 187.35 228.666 187.35C227.749 187.35 227.005 188.094 227.005 189.011C227.005 189.929 227.749 190.673 228.666 190.673Z" fill="white"/>
<path d="M282.782 46.3226C282.5 41.9637 279.868 38.1024 275.922 36.2285L224.803 11.9502C221.529 10.3953 217.73 10.3953 214.456 11.9502L163.337 36.2285C159.391 38.1024 156.759 41.9637 156.477 46.3226C151.682 120.441 199.206 147.447 214.785 154.269C217.874 155.622 221.384 155.622 224.474 154.269C240.053 147.447 287.577 120.441 282.782 46.3226Z" fill="url(#paint8_linear_351_6226)"/>
<path opacity="0.74" d="M204.169 22.3767C203.824 22.3767 203.493 22.182 203.335 21.8492C203.116 21.3888 203.312 20.8382 203.773 20.6198L215.852 14.8832C216.311 14.6636 216.862 14.8605 217.081 15.3209C217.3 15.7812 217.104 16.3318 216.643 16.5503L204.565 22.2869C204.437 22.3478 204.302 22.3767 204.169 22.3767Z" fill="white"/>
<path opacity="0.74" d="M160.387 62.3811C159.891 62.3811 159.482 61.9881 159.465 61.4892C159.303 56.6637 159.388 51.6315 159.718 46.5321C159.923 43.3563 161.844 40.5319 164.731 39.1609L199.119 22.8287C199.579 22.6091 200.13 22.8056 200.348 23.2664C200.567 23.7267 200.371 24.2772 199.911 24.4957L165.522 40.8282C163.24 41.912 161.722 44.1431 161.56 46.6509C161.234 51.6906 161.15 56.6618 161.31 61.4271C161.327 61.9365 160.928 62.3634 160.419 62.3806C160.408 62.3811 160.397 62.3811 160.387 62.3811Z" fill="white"/>
<path d="M270.427 49.2157C270.37 48.1107 269.712 47.1243 268.713 46.6497L220.925 23.9535C220.109 23.566 219.162 23.566 218.346 23.9535L170.559 46.6497C169.559 47.1243 168.902 48.1108 168.845 49.2157C167.432 76.8641 173.818 99.9332 187.84 117.813C198.53 131.445 211.036 138.75 218.364 142.158C219.171 142.534 220.1 142.534 220.908 142.158C228.236 138.75 240.741 131.445 251.432 117.813C265.454 99.9333 271.84 76.864 270.427 49.2157Z" fill="url(#paint9_linear_351_6226)"/>
<path d="M124.802 293.062C121.73 293.327 116.399 293.759 112.196 293.943C109.669 294.055 108.215 293.807 107.377 293.472C107.378 293.566 107.381 293.656 107.385 293.738C107.405 294.181 107.764 294.534 108.211 294.559C116.153 295.003 122.469 294.713 124.717 294.576C125.182 294.548 125.459 294.042 125.222 293.646C125.103 293.448 124.959 293.254 124.802 293.062Z" fill="url(#paint10_linear_351_6226)"/>
<path d="M112.197 293.943C116.4 293.758 121.731 293.327 124.803 293.061C121.783 289.356 112.197 286.858 112.197 286.858H109.489C107.627 289.542 107.358 292.098 107.378 293.471C108.216 293.807 109.67 294.054 112.197 293.943Z" fill="url(#paint11_linear_351_6226)"/>
<path d="M109.031 282.44L109.284 287.454C109.312 287.996 109.718 288.453 110.262 288.53C110.803 288.608 111.527 288.618 112.295 288.362C112.768 288.205 113.119 287.806 113.206 287.321L114.082 282.44H109.031Z" fill="url(#paint12_linear_351_6226)"/>
<path d="M77.6058 298.845C76.2736 298.605 75.6708 297.71 75.4181 296.754C75.4164 296.763 75.4148 296.771 75.4132 296.78C75.2172 297.788 75.6715 298.834 76.5799 299.331C77.6778 299.932 78.8783 300.034 79.8101 299.985C80.81 299.931 81.7278 299.397 82.2322 298.541L82.2398 298.528C81.2363 299.17 79.8274 299.245 77.6058 298.845Z" fill="url(#paint13_linear_351_6226)"/>
<path d="M83.8846 283.983H81.6518C78.2508 283.893 76.1152 293.164 75.416 296.754C75.6687 297.71 76.2715 298.605 77.6037 298.845C79.8253 299.245 81.2341 299.17 82.2377 298.528C84.0751 295.403 84.986 290.826 85.4239 288.155C85.922 285.118 83.8846 283.983 83.8846 283.983Z" fill="url(#paint14_linear_351_6226)"/>
<path d="M81.9407 279.33L80.7008 284.261C80.5488 284.866 80.8382 285.491 81.3972 285.778C82.0908 286.134 83.0673 286.508 83.9647 286.4C84.3867 286.349 84.7373 286.051 84.8768 285.654L86.697 280.466L81.9407 279.33Z" fill="url(#paint15_linear_351_6226)"/>
<path d="M125.561 214.384C125.561 214.384 114.482 283.642 114.664 284.022C114.664 284.022 111.604 285.413 108.268 284.199C108.268 284.199 109.27 247.176 111.618 232.981C111.618 232.981 92.7083 266.072 86.7034 282.561C86.7034 282.561 83.5715 282.187 80.979 280.481C80.979 280.481 101.339 220.918 106.771 212.984L125.561 214.384Z" fill="url(#paint16_linear_351_6226)"/>
<path d="M112.063 232.619C112.003 232.619 111.943 232.603 111.89 232.57C111.736 232.474 111.69 232.272 111.786 232.119L115.926 225.505C115.974 225.429 116.051 225.376 116.139 225.358L119.186 224.744C119.364 224.709 119.536 224.824 119.572 225.001C119.607 225.178 119.492 225.351 119.315 225.386L116.406 225.972L112.341 232.466C112.278 232.565 112.172 232.619 112.063 232.619Z" fill="#004348"/>
<path d="M176.393 146.564C176.393 146.564 168.917 148.213 164.37 150.313C163.466 150.73 162.746 151.459 162.336 152.357C160.976 155.337 156.907 162.807 149.016 166.372C150.152 167.881 151.982 171.018 152.779 176.291C157.518 172.764 161.61 166.873 163.575 157.211C163.575 157.211 165.07 158.024 166.936 157.118C167.922 156.639 169.061 155.96 169.915 155.426C170.767 154.894 171.401 154.066 171.647 153.1C171.972 151.824 171.781 150.702 171.781 149.499L175.624 148.308C175.624 148.308 176.779 147.872 176.393 146.564Z" fill="url(#paint17_linear_351_6226)"/>
<path d="M152.783 176.293C151.986 171.019 150.156 167.882 149.02 166.374C144.117 168.588 137.741 169.296 129.621 166.483C128.872 166.223 128.091 166.071 127.3 166.025C122.977 165.771 108.732 165.309 96.9452 169.203C94.4645 170.023 92.4553 171.857 91.4198 174.233C88.2312 181.55 83.069 198.214 97.3999 206.627C98.501 203.894 99.7718 201.697 100.858 200.082C98.5506 196.189 97.8671 190.873 101.963 183.949C104.949 192.013 106.35 203.778 106.643 208.985C106.739 210.7 106.438 212.411 105.766 213.993L105.692 214.166C105.548 214.505 105.746 214.894 106.109 214.975C114.176 216.788 122.567 216.295 125.074 216.088C125.522 216.051 125.894 215.731 125.996 215.298C129.92 198.768 129.928 187.492 128.968 180.364C132.638 181.184 143.86 182.934 152.783 176.293Z" fill="url(#paint18_linear_351_6226)"/>
<path d="M128.986 180.807C128.824 180.807 128.684 180.688 128.662 180.523C127.74 173.563 125.864 170.526 125.846 170.496C125.749 170.343 125.795 170.141 125.947 170.044C126.099 169.949 126.301 169.993 126.398 170.145C126.478 170.271 128.368 173.313 129.311 180.437C129.334 180.616 129.208 180.781 129.029 180.804C129.014 180.806 129 180.807 128.986 180.807Z" fill="url(#paint19_linear_351_6226)"/>
<path d="M109.079 156.394C109.079 156.394 108.263 165.024 107.545 167.576C107.436 167.964 107.604 168.372 107.956 168.573C109.175 169.27 112.101 170.407 116.102 168.446C116.75 168.128 117.14 167.452 117.11 166.737L116.757 158.398L109.079 156.394Z" fill="url(#paint20_linear_351_6226)"/>
<path d="M116.942 145.354C116.942 145.354 119.553 151.351 119.728 154.498C119.904 157.646 120.582 159.688 116.942 160.322C113.303 160.955 110.237 159.142 108.577 156.007C108.577 156.007 105.974 151.176 106.558 149.198C107.142 147.219 116.942 145.354 116.942 145.354Z" fill="url(#paint21_linear_351_6226)"/>
<path d="M109.817 153.754L110.025 153.663C110.288 153.547 110.401 153.233 110.269 152.977C109.756 151.985 108.755 149.713 110.048 149.183C111.713 148.5 118.311 147.155 119.734 144.813C121.103 142.563 119.89 139.659 118.069 138.833C117.947 138.778 117.803 138.822 117.74 138.94L117.589 139.227C117.485 139.424 117.194 139.394 117.132 139.18C117.073 138.975 116.8 138.936 116.687 139.117C116.25 139.817 115.068 140.952 111.909 141.536C107.419 142.364 104.451 144.181 104.377 147.284C104.373 147.481 104.163 147.59 103.995 147.488C103.663 147.286 103.133 147.191 102.424 147.787C101.191 148.824 101.695 151.513 104.398 153.725C104.526 153.831 104.526 154.031 104.386 154.122C103.896 154.44 103.166 155.199 105.059 156.211C107.016 157.258 108.478 157.172 109.041 157.079C109.181 157.056 109.272 156.92 109.241 156.782L108.64 154.055C108.606 153.901 108.724 153.755 108.882 153.755H109.817V153.754Z" fill="#003D42"/>
<path d="M109.934 154.329C109.934 154.329 108.938 150.498 107.221 151.572C105.504 152.646 108.112 155.864 109.493 156.008L109.934 154.329Z" fill="url(#paint22_linear_351_6226)"/>
<path d="M165.574 156.321C165.501 156.321 165.428 156.297 165.367 156.247C165.227 156.133 165.206 155.927 165.32 155.787C165.603 155.439 168.112 152.371 169.078 151.826C169.43 151.627 169.64 151.422 169.684 151.232C169.706 151.142 169.691 151.04 169.64 150.924L166.693 151.515L165.022 152.948C164.886 153.066 164.678 153.051 164.561 152.913C164.443 152.776 164.459 152.569 164.596 152.452L166.331 150.963C166.374 150.926 166.425 150.901 166.48 150.89L169.743 150.236C169.874 150.21 170.006 150.265 170.079 150.374C170.318 150.729 170.398 151.059 170.321 151.383C170.231 151.765 169.93 152.096 169.4 152.395C168.673 152.806 166.575 155.281 165.828 156.2C165.763 156.28 165.669 156.321 165.574 156.321Z" fill="url(#paint23_linear_351_6226)"/>
<path d="M109.799 210.774L121.338 210.916L117.299 207.115C116.296 206.17 114.764 206.017 113.605 206.769C112.927 207.209 112.191 207.806 111.553 208.597C111.553 208.597 104.355 205.966 100.866 200.081C99.7796 201.695 98.5088 203.893 97.4077 206.626C100.536 208.463 104.59 209.907 109.799 210.774Z" fill="url(#paint24_linear_351_6226)"/>
<path d="M111.042 212.262C111.065 212.263 111.087 212.264 111.11 212.264L140.4 212.232C141.124 212.232 141.71 211.65 141.709 210.934C141.708 210.217 141.119 209.625 140.397 209.638L111.107 209.67C110.383 209.67 109.797 210.252 109.797 210.968C109.798 211.662 110.35 212.228 111.042 212.262Z" fill="#002326"/>
<path d="M166.737 185.95H142.344C140.545 185.95 138.907 186.977 138.139 188.587L126.863 212.247H157.176C158.336 212.247 159.378 211.545 159.804 210.478L168.549 188.585C169.054 187.32 168.112 185.95 166.737 185.95Z" fill="#002326"/>
<path d="M149.541 198.081C149.013 199.706 149.403 201.284 150.414 201.606C151.424 201.927 152.671 200.871 153.2 199.246C153.728 197.621 153.338 196.043 152.328 195.721C151.317 195.4 150.07 196.456 149.541 198.081Z" fill="#002326"/>
<defs>
<linearGradient id="paint0_linear_351_6226" x1="337.644" y1="389.44" x2="70.7004" y2="57.9127" gradientUnits="userSpaceOnUse">
<stop stop-color="#FFF17E"/>
<stop offset="1" stop-color="#FFF9CB"/>
</linearGradient>
<linearGradient id="paint1_linear_351_6226" x1="161.218" y1="24.2627" x2="185.214" y2="204.419" gradientUnits="userSpaceOnUse">
<stop stop-color="#00464B"/>
<stop offset="1" stop-color="#00383C"/>
</linearGradient>
<linearGradient id="paint2_linear_351_6226" x1="187.476" y1="-13.731" x2="167.91" y2="238.781" gradientUnits="userSpaceOnUse">
<stop stop-color="#53D8FF"/>
<stop offset="1" stop-color="#3840F7"/>
</linearGradient>
<linearGradient id="paint3_linear_351_6226" x1="170.293" y1="233.254" x2="179.706" y2="7.88669" gradientUnits="userSpaceOnUse">
<stop stop-color="#017C85"/>
<stop offset="1" stop-color="#0DA6B1"/>
</linearGradient>
<linearGradient id="paint4_linear_351_6226" x1="101.399" y1="162.531" x2="98.4459" y2="298.632" gradientUnits="userSpaceOnUse">
<stop stop-color="#004D52"/>
<stop offset="1" stop-color="#01595F"/>
</linearGradient>
<linearGradient id="paint5_linear_351_6226" x1="83.1751" y1="207.383" x2="145.193" y2="99.9596" gradientUnits="userSpaceOnUse">
<stop stop-color="#0598A3"/>
<stop offset="1" stop-color="#1CC3CF"/>
</linearGradient>
<linearGradient id="paint6_linear_351_6226" x1="207.783" y1="228.366" x2="276.263" y2="228.366" gradientUnits="userSpaceOnUse">
<stop stop-color="#004D52"/>
<stop offset="1" stop-color="#017C85"/>
</linearGradient>
<linearGradient id="paint7_linear_351_6226" x1="236.924" y1="277.789" x2="244.307" y2="168.514" gradientUnits="userSpaceOnUse">
<stop stop-color="#6CB3B8"/>
<stop offset="0.653837" stop-color="#268F97"/>
<stop offset="1" stop-color="#017C85"/>
</linearGradient>
<linearGradient id="paint8_linear_351_6226" x1="340.228" y1="-68.0037" x2="273.781" y2="8.96441" gradientUnits="userSpaceOnUse">
<stop stop-color="#017C85"/>
<stop offset="1" stop-color="#017C85"/>
</linearGradient>
<linearGradient id="paint9_linear_351_6226" x1="249.41" y1="24.4497" x2="180.484" y2="121.238" gradientUnits="userSpaceOnUse">
<stop stop-color="#FFE502"/>
<stop offset="1" stop-color="#FFF389"/>
</linearGradient>
<linearGradient id="paint10_linear_351_6226" x1="107.377" y1="293.929" x2="125.309" y2="293.929" gradientUnits="userSpaceOnUse">
<stop stop-color="#4F52FF"/>
<stop offset="1" stop-color="#4042E2"/>
</linearGradient>
<linearGradient id="paint11_linear_351_6226" x1="107.377" y1="290.414" x2="124.803" y2="290.414" gradientUnits="userSpaceOnUse">
<stop stop-color="#09005D"/>
<stop offset="1" stop-color="#1A0F91"/>
</linearGradient>
<linearGradient id="paint12_linear_351_6226" x1="109.031" y1="285.509" x2="114.082" y2="285.509" gradientUnits="userSpaceOnUse">
<stop stop-color="#FEBBBA"/>
<stop offset="1" stop-color="#FF928E"/>
</linearGradient>
<linearGradient id="paint13_linear_351_6226" x1="75.3682" y1="298.375" x2="82.2399" y2="298.375" gradientUnits="userSpaceOnUse">
<stop stop-color="#4F52FF"/>
<stop offset="1" stop-color="#4042E2"/>
</linearGradient>
<linearGradient id="paint14_linear_351_6226" x1="75.4161" y1="291.537" x2="85.5024" y2="291.537" gradientUnits="userSpaceOnUse">
<stop stop-color="#09005D"/>
<stop offset="1" stop-color="#1A0F91"/>
</linearGradient>
<linearGradient id="paint15_linear_351_6226" x1="80.6607" y1="282.874" x2="86.6971" y2="282.874" gradientUnits="userSpaceOnUse">
<stop stop-color="#FEBBBA"/>
<stop offset="1" stop-color="#FF928E"/>
</linearGradient>
<linearGradient id="paint16_linear_351_6226" x1="129.493" y1="217.735" x2="77.9557" y2="302.157" gradientUnits="userSpaceOnUse">
<stop stop-color="#0997A1"/>
<stop offset="1" stop-color="#00565D"/>
</linearGradient>
<linearGradient id="paint17_linear_351_6226" x1="163.683" y1="155.723" x2="139.775" y2="186.826" gradientUnits="userSpaceOnUse">
<stop stop-color="#FEBBBA"/>
<stop offset="1" stop-color="#FF928E"/>
</linearGradient>
<linearGradient id="paint18_linear_351_6226" x1="172.921" y1="133.978" x2="116.995" y2="186.582" gradientUnits="userSpaceOnUse">
<stop stop-color="#FF928E"/>
<stop offset="1" stop-color="#FE7062"/>
</linearGradient>
<linearGradient id="paint19_linear_351_6226" x1="125.795" y1="175.401" x2="129.313" y2="175.401" gradientUnits="userSpaceOnUse">
<stop stop-color="#E1473D"/>
<stop offset="1" stop-color="#E9605A"/>
</linearGradient>
<linearGradient id="paint20_linear_351_6226" x1="110.403" y1="175.826" x2="113.019" y2="162.094" gradientUnits="userSpaceOnUse">
<stop stop-color="#FEBBBA"/>
<stop offset="1" stop-color="#FF928E"/>
</linearGradient>
<linearGradient id="paint21_linear_351_6226" x1="117.49" y1="150.632" x2="102.567" y2="162.051" gradientUnits="userSpaceOnUse">
<stop stop-color="#FEBBBA"/>
<stop offset="1" stop-color="#FF928E"/>
</linearGradient>
<linearGradient id="paint22_linear_351_6226" x1="115.64" y1="148.213" x2="100.716" y2="159.632" gradientUnits="userSpaceOnUse">
<stop stop-color="#FEBBBA"/>
<stop offset="1" stop-color="#FF928E"/>
</linearGradient>
<linearGradient id="paint23_linear_351_6226" x1="164.482" y1="153.275" x2="170.349" y2="153.275" gradientUnits="userSpaceOnUse">
<stop stop-color="#FF928E"/>
<stop offset="1" stop-color="#FE7062"/>
</linearGradient>
<linearGradient id="paint24_linear_351_6226" x1="137.252" y1="174.118" x2="140.021" y2="170.796" gradientUnits="userSpaceOnUse">
<stop stop-color="#FEBBBA"/>
<stop offset="1" stop-color="#FF928E"/>
</linearGradient>
</defs>
</svg>
