<svg width="299" height="301" viewBox="0 0 299 301" fill="none" xmlns="http://www.w3.org/2000/svg">
<path d="M282.773 205.617C255.098 271.734 181.378 308.773 117.447 298.782C107.045 297.156 78.5251 292.313 53.2751 269.466C4.66695 225.484 -5.72826 138.393 33.4825 77.0177C62.0209 32.3474 113.179 7.02529 161.789 8.29194C172.26 8.56472 212.388 10.2462 247.653 39.7507C252.833 44.0843 264.258 54.3822 274.554 70.7191C298.731 109.081 300.81 162.528 282.773 205.617Z" fill="url(#paint0_linear_351_6144)"/>
<path d="M2.33726 193.28C7.06247 173.112 22.514 157.28 42.1845 152.438C55.7082 149.109 68.683 150.895 79.6498 156.289C83.2872 158.078 87.6096 156.053 88.6174 152.048C98.3119 113.519 132.431 85.0555 173.036 85.0555C221.185 85.0555 260.217 125.076 260.217 174.444C260.217 175.754 260.191 177.544 260.169 179.262C260.339 182.954 261.911 184.521 264.258 184.915C283.122 186.928 297.948 202.873 298.77 222.54C299.715 245.123 281.789 263.832 259.744 263.832H55.8359C20.9296 263.832 -6.40109 230.576 2.33726 193.28Z" fill="#70AFB3"/>
<path opacity="0.21" d="M18.1256 200.838C22.3446 182.831 36.1408 168.695 53.704 164.371C65.7789 161.399 77.3637 162.994 87.1556 167.81C90.4033 169.408 94.2627 167.599 95.1625 164.023C103.818 129.622 134.282 104.208 170.537 104.208C213.527 104.208 248.378 139.941 248.378 184.02C248.378 185.19 248.355 186.788 248.335 188.322C248.487 191.618 249.891 193.018 251.986 193.369C268.83 195.167 282.067 209.404 282.801 226.964C283.645 247.127 267.639 263.832 247.956 263.832H65.8929C34.7262 263.832 10.3235 234.139 18.1256 200.838Z" fill="#70AFB3"/>
<path d="M41.8113 287.99C41.8113 289.643 43.1647 290.995 44.8189 290.995H207.461C209.115 290.995 210.468 289.643 210.468 287.99L211.822 194.524C211.822 192.872 209.874 189.645 206.306 189.888L47.3549 185.775C45.2793 185.721 43.2725 186.52 41.8027 187.985C40.3329 189.45 39.5287 191.453 39.5778 193.527L41.8113 287.99Z" fill="url(#paint1_linear_351_6144)"/>
<path d="M44.7805 285.108C44.7805 286.672 46.0609 287.953 47.6259 287.953H203.538C205.103 287.953 206.384 286.672 206.384 285.108L207.661 200.258C207.51 195.152 203.034 193.317 200.32 193.426L47.9798 189.339C46.5217 189.299 45.1118 189.861 44.079 190.891C43.0463 191.922 42.4783 193.331 42.5148 194.79L44.7805 285.108Z" fill="#017C85"/>
<path d="M204.697 244.799C204.695 244.799 204.693 244.799 204.693 244.799C204.461 244.796 204.277 244.606 204.28 244.376L204.381 237.494C204.385 237.266 204.571 237.084 204.798 237.084C204.8 237.084 204.802 237.084 204.802 237.084C205.035 237.087 205.219 237.276 205.215 237.507L205.114 244.388C205.111 244.616 204.925 244.799 204.697 244.799Z" fill="white"/>
<path d="M204.95 227.936C204.95 227.936 204.945 227.936 204.943 227.936C204.713 227.932 204.529 227.743 204.533 227.512L204.919 201.158C204.912 199.592 204.437 198.342 203.507 197.451C201.771 195.788 199.015 195.873 198.898 195.878L150.207 194.572C149.977 194.567 149.795 194.375 149.801 194.144C149.807 193.914 149.984 193.718 150.229 193.739L198.892 195.045C199.195 195.027 202.129 194.976 204.084 196.849C205.183 197.902 205.745 199.354 205.753 201.162L205.366 227.525C205.363 227.753 205.177 227.936 204.95 227.936Z" fill="white"/>
<path d="M29.2235 298.754H219.76C220.093 298.754 220.366 298.481 220.366 298.148V291.147C220.366 290.814 220.093 290.541 219.76 290.541H29.2235C28.8902 290.541 28.6177 290.814 28.6177 291.147V298.148C28.6178 298.481 28.8904 298.754 29.2235 298.754Z" fill="url(#paint2_linear_351_6144)"/>
<path d="M112.427 283.814H52.3964C50.183 283.814 48.3887 282.019 48.3887 279.806V201.448C48.3887 199.175 50.2778 197.356 52.5496 197.443L112.58 199.741C114.732 199.823 116.434 201.592 116.434 203.745V279.806C116.434 282.019 114.64 283.814 112.427 283.814Z" fill="#01ADBA" fill-opacity="0.54"/>
<path opacity="0.51" d="M100.48 233.467H60.7164C60.4009 233.467 60.145 233.211 60.145 232.895V228.754C60.145 228.438 60.4009 228.182 60.7164 228.182H100.48C100.795 228.182 101.051 228.438 101.051 228.754V232.895C101.051 233.211 100.795 233.467 100.48 233.467Z" fill="white"/>
<path opacity="0.51" d="M100.558 241.907H60.7945C60.479 241.907 60.2231 241.651 60.2231 241.335V237.193C60.2231 236.878 60.479 236.622 60.7945 236.622H100.558C100.873 236.622 101.129 236.878 101.129 237.193V241.335C101.129 241.651 100.873 241.907 100.558 241.907Z" fill="white"/>
<path opacity="0.51" d="M100.801 250.522H61.0377C60.7222 250.522 60.4663 250.266 60.4663 249.95V245.808C60.4663 245.493 60.7222 245.237 61.0377 245.237H100.801C101.116 245.237 101.372 245.493 101.372 245.808V249.95C101.372 250.266 101.116 250.522 100.801 250.522Z" fill="white"/>
<path opacity="0.51" d="M100.879 258.961H61.1163C60.8007 258.961 60.5449 258.705 60.5449 258.39V254.248C60.5449 253.933 60.8008 253.677 61.1163 253.677H100.879C101.195 253.677 101.451 253.933 101.451 254.248V258.39C101.451 258.705 101.195 258.961 100.879 258.961Z" fill="white"/>
<path opacity="0.51" d="M187.687 233.461H130.019C129.704 233.461 129.448 233.205 129.448 232.889V228.747C129.448 228.432 129.704 228.176 130.019 228.176H187.687C188.003 228.176 188.258 228.432 188.258 228.747V232.889C188.259 233.205 188.003 233.461 187.687 233.461Z" fill="white"/>
<path opacity="0.51" d="M187.869 241.905H130.201C129.886 241.905 129.63 241.649 129.63 241.334V237.192C129.63 236.877 129.886 236.621 130.201 236.621H187.869C188.185 236.621 188.441 236.877 188.441 237.192V241.334C188.441 241.649 188.185 241.905 187.869 241.905Z" fill="white"/>
<path opacity="0.51" d="M163.907 250.521H130.201C129.886 250.521 129.63 250.265 129.63 249.95V245.808C129.63 245.493 129.886 245.237 130.201 245.237H163.907C164.222 245.237 164.478 245.493 164.478 245.808V249.95C164.478 250.265 164.222 250.521 163.907 250.521Z" fill="white"/>
<g opacity="0.51">
<path d="M160.663 208.48H159.767C159.322 208.48 158.961 208.12 158.961 207.675V204.613C158.961 203.517 158.073 202.628 156.977 202.628H151.426C150.33 202.628 149.442 203.517 149.442 204.613V207.675C149.442 208.12 149.081 208.48 148.636 208.48H147.74C147.296 208.48 146.935 208.12 146.935 207.675V204.613C146.935 202.132 148.946 200.122 151.426 200.122H156.977C159.457 200.122 161.468 202.132 161.468 204.613V207.675C161.468 208.12 161.107 208.48 160.663 208.48Z" fill="white"/>
<path d="M161.776 209.203H146.633C145.705 209.203 144.953 209.955 144.953 210.883V222.505C144.953 223.433 145.705 224.185 146.633 224.185H161.776C162.704 224.185 163.457 223.433 163.457 222.505V210.883C163.457 209.955 162.704 209.203 161.776 209.203ZM156.372 220.435C156.466 220.827 156.169 221.203 155.766 221.203H152.644C152.241 221.203 151.944 220.827 152.038 220.435L152.767 217.402C151.907 216.888 151.345 215.927 151.402 214.839C151.477 213.431 152.618 212.278 154.026 212.19C155.657 212.089 157.012 213.382 157.012 214.991C157.012 216.016 156.463 216.912 155.643 217.402L156.372 220.435Z" fill="white"/>
</g>
<path d="M204.722 72.8054C204.663 72.8054 204.603 72.791 204.548 72.76C204.373 72.6631 204.31 72.4437 204.407 72.2697C204.64 71.852 204.865 71.4313 205.083 71.0079C205.174 70.8311 205.391 70.762 205.569 70.8529C205.746 70.944 205.815 71.1618 205.724 71.339C205.502 71.7687 205.274 72.1957 205.038 72.6197C204.972 72.7385 204.849 72.8054 204.722 72.8054Z" fill="#017C85"/>
<path d="M162.518 97.6406C162.305 97.6406 162.092 97.6392 161.879 97.6364C161.68 97.6336 161.521 97.4701 161.523 97.2707C161.526 97.0735 161.687 96.9149 161.884 96.9149H161.889C162.822 96.9276 163.765 96.9121 164.696 96.8698C164.882 96.8572 165.064 97.0146 165.072 97.2139C165.082 97.4129 164.927 97.5813 164.728 97.5905C163.996 97.6237 163.252 97.6406 162.518 97.6406ZM157.298 97.3591C157.285 97.3591 157.272 97.3584 157.259 97.357C156.316 97.2549 155.367 97.1242 154.436 96.9681C154.24 96.935 154.107 96.749 154.14 96.5528C154.173 96.3563 154.36 96.2224 154.555 96.2565C155.472 96.4105 156.408 96.5394 157.336 96.6398C157.534 96.6612 157.678 96.8392 157.656 97.0371C157.636 97.2221 157.48 97.3591 157.298 97.3591ZM169.287 97.1657C169.11 97.1657 168.956 97.0353 168.931 96.8555C168.903 96.6582 169.04 96.4757 169.238 96.4479C170.161 96.3179 171.092 96.1587 172.005 95.9748C172.198 95.9357 172.39 96.0622 172.43 96.2574C172.469 96.4525 172.342 96.6428 172.147 96.6822C171.22 96.8689 170.275 97.0302 169.338 97.1623C169.321 97.1647 169.304 97.1657 169.287 97.1657ZM150.006 95.9998C149.975 95.9998 149.943 95.996 149.913 95.9875C148.998 95.7434 148.08 95.469 147.183 95.172C146.993 95.1097 146.891 94.9053 146.954 94.7162C147.016 94.5275 147.219 94.4252 147.409 94.4873C148.293 94.7797 149.198 95.0502 150.098 95.2907C150.291 95.3422 150.405 95.5397 150.354 95.7322C150.311 95.8934 150.165 95.9998 150.006 95.9998ZM176.533 95.5682C176.378 95.5682 176.235 95.4678 176.187 95.3122C176.13 95.1216 176.237 94.9201 176.428 94.8624C177.322 94.5915 178.217 94.291 179.09 93.9695C179.276 93.9008 179.484 93.9962 179.553 94.1833C179.622 94.3704 179.526 94.5775 179.339 94.6465C178.453 94.9731 177.544 95.2781 176.637 95.5528C176.602 95.5633 176.567 95.5682 176.533 95.5682ZM143.007 93.54C142.959 93.54 142.909 93.5302 142.862 93.5094C141.995 93.1272 141.13 92.7147 140.29 92.2839C140.113 92.193 140.043 91.9753 140.134 91.7981C140.226 91.6216 140.442 91.5511 140.62 91.6421C141.447 92.0666 142.299 92.4727 143.153 92.8493C143.336 92.9296 143.418 93.1427 143.338 93.3248C143.278 93.4597 143.146 93.54 143.007 93.54ZM183.445 92.8746C183.311 92.8746 183.182 92.7996 183.12 92.6702C183.033 92.491 183.109 92.2754 183.288 92.1887C184.127 91.7847 184.966 91.3497 185.781 90.8956C185.956 90.7991 186.175 90.8615 186.272 91.0355C186.369 91.2095 186.306 91.4293 186.132 91.5262C185.305 91.9869 184.453 92.4286 183.601 92.839C183.551 92.8633 183.498 92.8746 183.445 92.8746ZM136.474 90.0326C136.407 90.0326 136.34 90.0143 136.279 89.9755C135.483 89.4647 134.692 88.9237 133.928 88.3678C133.767 88.2505 133.731 88.0251 133.848 87.8637C133.966 87.7028 134.191 87.6675 134.352 87.7844C135.105 88.3321 135.884 88.8648 136.669 89.3681C136.837 89.4756 136.885 89.6989 136.778 89.8665C136.709 89.9741 136.592 90.0326 136.474 90.0326ZM189.86 89.146C189.745 89.146 189.632 89.0918 189.562 88.9903C189.449 88.8262 189.491 88.6014 189.654 88.4884C190.422 87.959 191.184 87.3999 191.919 86.8265C192.076 86.7042 192.303 86.7321 192.425 86.8891C192.548 87.0462 192.52 87.273 192.363 87.3957C191.616 87.9773 190.843 88.5447 190.064 89.0822C190.002 89.1252 189.93 89.146 189.86 89.146ZM130.56 85.56C130.475 85.56 130.39 85.5301 130.321 85.4695C129.615 84.8446 128.916 84.1887 128.243 83.5197C128.102 83.3791 128.101 83.1509 128.242 83.0097C128.383 82.8688 128.611 82.8678 128.752 83.0083C129.415 83.667 130.104 84.3134 130.799 84.9292C130.948 85.0613 130.962 85.2892 130.83 85.4385C130.759 85.5189 130.66 85.56 130.56 85.56ZM195.63 84.4772C195.535 84.4772 195.439 84.4392 195.368 84.3642C195.231 84.2191 195.238 83.9908 195.383 83.8541C196.061 83.2137 196.73 82.5462 197.368 81.8695C197.505 81.7251 197.734 81.7188 197.879 81.8547C198.023 81.9918 198.03 82.22 197.893 82.3648C197.245 83.0514 196.567 83.7291 195.878 84.379C195.808 84.4445 195.719 84.4772 195.63 84.4772ZM125.395 80.2344C125.291 80.2344 125.189 80.19 125.117 80.1044C124.513 79.3788 123.921 78.6246 123.358 77.863C123.24 77.7027 123.274 77.477 123.434 77.3583C123.595 77.2399 123.82 77.2745 123.938 77.434C124.493 78.1847 125.076 78.9279 125.672 79.643C125.799 79.7959 125.778 80.0234 125.625 80.1509C125.558 80.2069 125.476 80.2344 125.395 80.2344ZM200.623 78.9916C200.545 78.9916 200.468 78.967 200.402 78.9156C200.245 78.7933 200.216 78.5665 200.339 78.4094C200.913 77.6714 201.471 76.9095 201.997 76.1448C202.111 75.9806 202.336 75.939 202.499 76.0518C202.663 76.1648 202.705 76.3896 202.592 76.5534C202.058 77.3301 201.491 78.1037 200.908 78.8526C200.837 78.9438 200.73 78.9916 200.623 78.9916ZM121.097 74.1873C120.974 74.1873 120.855 74.1249 120.787 74.0122C120.298 73.1981 119.829 72.3619 119.393 71.5267C119.301 71.3502 119.369 71.1322 119.546 71.0398C119.722 70.9479 119.94 71.0158 120.032 71.1927C120.462 72.0153 120.924 72.8388 121.406 73.6408C121.508 73.8116 121.453 74.0332 121.282 74.1357C121.224 74.1706 121.16 74.1873 121.097 74.1873ZM117.781 67.5508C117.638 67.5508 117.504 67.466 117.446 67.3257C117.09 66.4468 116.755 65.5482 116.453 64.655C116.389 64.4665 116.49 64.2615 116.679 64.1978C116.866 64.134 117.072 64.2352 117.136 64.424C117.434 65.3035 117.763 66.1884 118.115 67.0546C118.19 67.2392 118.101 67.4494 117.916 67.5245C117.872 67.5424 117.826 67.5508 117.781 67.5508Z" fill="#017C85"/>
<path d="M115.531 60.4634C115.367 60.4634 115.219 60.3514 115.18 60.1851C115.069 59.713 114.965 59.24 114.869 58.7659C114.829 58.5708 114.955 58.3802 115.15 58.3408C115.345 58.3013 115.536 58.4264 115.575 58.6222C115.67 59.0894 115.773 59.5553 115.882 60.0203C115.928 60.2145 115.807 60.4085 115.613 60.4539C115.586 60.4601 115.558 60.4634 115.531 60.4634Z" fill="#017C85"/>
<path d="M121.651 23.6795C121.586 23.6795 121.519 23.6615 121.459 23.6238C121.291 23.5177 121.24 23.2947 121.347 23.1264C121.604 22.7178 121.868 22.3117 122.139 21.9091C122.25 21.7438 122.474 21.6992 122.639 21.8108C122.805 21.9221 122.849 22.1462 122.738 22.3114C122.471 22.7083 122.211 23.1082 121.957 23.5112C121.889 23.6199 121.771 23.6795 121.651 23.6795Z" fill="#017C85"/>
<path d="M208.825 35.7625C208.669 35.7625 208.525 35.6608 208.479 35.5033C208.204 34.5631 207.895 33.6194 207.561 32.6979C207.494 32.5109 207.591 32.3041 207.778 32.2361C207.965 32.1678 208.172 32.2654 208.24 32.4528C208.578 33.3877 208.891 34.3458 209.172 35.3004C209.228 35.4917 209.118 35.6921 208.927 35.7482C208.893 35.7579 208.859 35.7625 208.825 35.7625ZM206.03 28.4818C205.896 28.4818 205.767 28.4063 205.705 28.2774C205.279 27.3925 204.822 26.5113 204.344 25.6581C204.247 25.4844 204.309 25.2647 204.483 25.1671C204.657 25.0706 204.877 25.1322 204.974 25.3058C205.458 26.1717 205.923 27.0664 206.355 27.9646C206.441 28.1443 206.366 28.3598 206.186 28.4461C206.136 28.4705 206.083 28.4818 206.03 28.4818ZM202.091 21.7503C201.977 21.7503 201.865 21.6967 201.795 21.5963C201.234 20.795 200.64 19.9993 200.029 19.2317C199.905 19.0757 199.931 18.8488 200.086 18.7248C200.243 18.6001 200.469 18.6266 200.593 18.7822C201.213 19.5618 201.816 20.3691 202.386 21.1829C202.5 21.3459 202.461 21.5707 202.297 21.6852C202.235 21.7291 202.162 21.7503 202.091 21.7503ZM125.328 18.6021C125.247 18.6021 125.165 18.575 125.098 18.519C124.945 18.3918 124.924 18.1642 125.051 18.011C125.684 17.2487 126.351 16.4931 127.034 15.7657C127.17 15.6202 127.398 15.6132 127.544 15.7496C127.689 15.8863 127.696 16.1145 127.56 16.2597C126.887 16.9764 126.229 17.7208 125.606 18.4718C125.534 18.5578 125.432 18.6021 125.328 18.6021ZM197.12 15.7401C197.026 15.7401 196.932 15.7035 196.861 15.6306C196.182 14.93 195.469 14.2393 194.743 13.5773C194.596 13.4431 194.585 13.2149 194.719 13.0677C194.854 12.9197 195.082 12.9095 195.229 13.0441C195.966 13.7162 196.689 14.4171 197.379 15.1283C197.518 15.2714 197.514 15.4996 197.371 15.6384C197.301 15.7063 197.211 15.7401 197.12 15.7401ZM130.774 13.0197C130.674 13.0197 130.574 12.9778 130.503 12.8963C130.372 12.7462 130.387 12.5183 130.537 12.3873C131.287 11.7318 132.067 11.0917 132.853 10.4848C133.012 10.3636 133.238 10.3928 133.359 10.5499C133.481 10.7077 133.451 10.9342 133.294 11.0561C132.519 11.6538 131.751 12.2843 131.012 12.9304C130.943 12.9904 130.858 13.0197 130.774 13.0197ZM191.259 10.6004C191.184 10.6004 191.109 10.5771 191.044 10.5292C190.257 9.94488 189.443 9.3781 188.623 8.8441C188.456 8.73556 188.408 8.51195 188.517 8.34492C188.626 8.17831 188.848 8.13074 189.016 8.23959C189.849 8.78174 190.676 9.35699 191.474 9.95013C191.634 10.0688 191.667 10.295 191.548 10.4549C191.478 10.55 191.369 10.6004 191.259 10.6004ZM137.042 8.37449C136.922 8.37449 136.804 8.31427 136.736 8.20435C136.63 8.03527 136.682 7.81296 136.851 7.70763C137.695 7.18242 138.567 6.67585 139.443 6.20281C139.619 6.10735 139.838 6.17389 139.932 6.34864C140.027 6.52403 139.961 6.74281 139.786 6.83752C138.923 7.3036 138.064 7.80235 137.232 8.31985C137.173 8.35692 137.107 8.37449 137.042 8.37449ZM184.643 6.47517C184.588 6.47517 184.531 6.46253 184.478 6.43499C183.609 5.9866 182.713 5.55931 181.816 5.16481C181.633 5.08489 181.55 4.8721 181.631 4.68964C181.71 4.50717 181.923 4.42371 182.106 4.50471C183.016 4.90488 183.926 5.33849 184.809 5.79396C184.986 5.88514 185.055 6.10285 184.964 6.27974C184.9 6.40403 184.774 6.47517 184.643 6.47517ZM143.977 4.80299C143.836 4.80299 143.702 4.71953 143.644 4.58078C143.567 4.39692 143.655 4.18596 143.839 4.10914C144.755 3.72835 145.697 3.37006 146.64 3.04531C146.829 2.98081 147.034 3.08014 147.099 3.2686C147.164 3.45707 147.064 3.66246 146.875 3.72728C145.947 4.04742 145.018 4.40003 144.116 4.77557C144.07 4.79421 144.023 4.80299 143.977 4.80299ZM177.447 3.47571C177.41 3.47571 177.372 3.47003 177.335 3.45814C176.404 3.15621 175.451 2.87935 174.502 2.63496C174.309 2.58524 174.192 2.38842 174.242 2.19567C174.292 2.0026 174.492 1.88678 174.681 1.93607C175.645 2.18442 176.613 2.46546 177.558 2.77199C177.747 2.83328 177.851 3.03685 177.79 3.22639C177.74 3.37885 177.599 3.47571 177.447 3.47571ZM151.398 2.40417C151.234 2.40417 151.086 2.29221 151.047 2.12624C151.002 1.93253 151.122 1.73807 151.315 1.69232C152.285 1.46367 153.274 1.26289 154.252 1.09564C154.453 1.06392 154.635 1.19389 154.668 1.39017C154.702 1.58678 154.57 1.7731 154.374 1.80653C153.41 1.97142 152.437 2.16932 151.481 2.39474C151.453 2.40107 151.425 2.40417 151.398 2.40417ZM169.86 1.67646C169.842 1.67646 169.823 1.67507 169.805 1.67217C168.836 1.52357 167.851 1.40346 166.875 1.31464C166.677 1.29664 166.53 1.12093 166.548 0.922604C166.567 0.724282 166.738 0.577389 166.94 0.596032C167.931 0.686246 168.931 0.808495 169.914 0.959244C170.111 0.989566 170.246 1.17342 170.216 1.37035C170.189 1.54896 170.035 1.67646 169.86 1.67646ZM159.109 1.23396C158.921 1.23396 158.763 1.08846 158.75 0.898604C158.736 0.69964 158.885 0.527352 159.084 0.513638C160.075 0.443888 161.082 0.40446 162.078 0.395996H162.081C162.279 0.395996 162.44 0.555532 162.442 0.753532C162.443 0.952925 162.283 1.11567 162.084 1.11739C161.103 1.12585 160.11 1.16464 159.135 1.23289C159.126 1.23364 159.118 1.23396 159.109 1.23396Z" fill="#017C85"/>
<path d="M210.205 41.9039C210.031 41.9039 209.877 41.7768 209.849 41.5989C209.776 41.1279 209.696 40.6576 209.608 40.1881C209.571 39.9923 209.7 39.8038 209.896 39.7672C210.091 39.7333 210.281 39.8602 210.317 40.0557C210.406 40.5323 210.488 41.0096 210.562 41.4877C210.593 41.6846 210.458 41.8692 210.261 41.8999C210.242 41.9025 210.224 41.9039 210.205 41.9039Z" fill="#017C85"/>
<path d="M199.575 47.9391C199.595 47.6928 199.455 47.4611 199.229 47.3627L192.762 44.5537C192.263 41.2995 191.241 38.1013 189.684 35.0921L193.252 29.0171C193.377 28.804 193.353 28.5351 193.193 28.3473L187.696 21.9213C187.535 21.7335 187.273 21.6683 187.043 21.7589L180.489 24.3433C177.757 22.3388 174.756 20.8336 171.618 19.8361L169.845 13.0127C169.782 12.7736 169.575 12.6002 169.329 12.581L160.898 11.9241C160.652 11.9049 160.42 12.0441 160.322 12.2708L157.513 18.7371C154.258 19.2366 151.06 20.2588 148.051 21.816L141.976 18.2476C141.763 18.1223 141.494 18.1461 141.306 18.3068L134.88 23.804C134.692 23.9646 134.627 24.2267 134.718 24.4566L137.302 31.0111C135.298 33.7428 133.793 36.7437 132.795 39.8814L125.972 41.655C125.733 41.7172 125.559 41.9243 125.54 42.1705L124.883 50.6014C124.864 50.8478 125.003 51.0792 125.23 51.1777L131.696 53.9867C132.195 57.2409 133.218 60.439 134.775 63.4482L131.206 69.5233C131.081 69.7363 131.105 70.0054 131.266 70.1931L136.763 76.6193C136.923 76.8071 137.185 76.8721 137.415 76.7815L143.97 74.1971C146.701 76.2018 149.703 77.7069 152.84 78.7043L154.614 85.5276C154.676 85.7668 154.883 85.9402 155.129 85.9594L163.56 86.6162C163.807 86.6354 164.038 86.4963 164.137 86.2695L166.946 79.8034C170.2 79.3039 173.398 78.2817 176.407 76.7244L182.482 80.293C182.695 80.418 182.964 80.3942 183.152 80.2336L189.578 74.7366C189.766 74.576 189.831 74.3139 189.741 74.084L187.156 67.5295C189.161 64.7978 190.666 61.7966 191.663 58.6592L198.487 56.8855C198.726 56.8234 198.899 56.6164 198.919 56.3698L199.575 47.9391Z" fill="#017C85"/>
<path opacity="0.7" d="M162.215 57.3223C160.564 57.3226 158.957 56.8144 157.582 55.8415C153.959 53.2775 153.097 48.2438 155.661 44.6205C156.903 42.8652 158.755 41.699 160.874 41.3362C162.994 40.9745 165.127 41.4581 166.882 42.6998C168.638 43.9422 169.804 45.7933 170.167 47.9124C170.529 50.0319 170.045 52.1659 168.803 53.9207C167.561 55.6761 165.71 56.8423 163.59 57.2051C163.131 57.2835 162.671 57.3223 162.215 57.3223ZM162.247 42.3009C161.852 42.3009 161.454 42.3348 161.057 42.4027C159.222 42.7165 157.62 43.7261 156.545 45.2454C154.325 48.3815 155.071 52.7389 158.207 54.9581C159.726 56.0335 161.573 56.4517 163.408 56.1385C165.243 55.8247 166.845 54.8151 167.92 53.2958C168.995 51.7765 169.414 49.9297 169.1 48.0951C168.786 46.2606 167.777 44.6581 166.257 43.5831C165.067 42.7408 163.676 42.3009 162.247 42.3009Z" fill="white"/>
<path opacity="0.7" d="M162.079 70.2195C161.528 70.2195 160.974 70.1979 160.419 70.1546C154.841 69.7203 149.766 67.1393 146.129 62.8877C142.854 59.0598 141.098 54.2899 141.098 49.3058C141.098 48.7542 141.12 48.2004 141.163 47.6446C141.598 42.0666 144.178 36.9918 148.43 33.3547C152.681 29.7181 158.095 27.9543 163.673 28.389C169.251 28.8234 174.326 31.4043 177.963 35.6559C178.934 36.7909 179.784 38.0277 180.488 39.3314L179.536 39.8457C178.868 38.6092 178.062 37.4362 177.141 36.3595C173.692 32.3272 168.879 29.8798 163.589 29.4676C158.299 29.059 153.166 30.7283 149.133 34.1768C145.102 37.6261 142.654 42.4389 142.242 47.7287C142.201 48.2556 142.18 48.7808 142.18 49.304C142.18 54.0305 143.846 58.5542 146.951 62.1845C150.4 66.2164 155.213 68.6639 160.503 69.0759C165.796 69.4884 170.927 67.8156 174.958 64.3667C177.695 62.0256 179.742 58.993 180.879 55.597L181.906 55.9409C180.707 59.5225 178.547 62.7206 175.662 65.1889C171.834 68.4635 167.063 70.2195 162.079 70.2195Z" fill="white"/>
<path d="M245.417 84.6461C245.355 84.6461 245.291 84.6299 245.234 84.5957C245.062 84.4942 245.006 84.273 245.107 84.1014C245.349 83.6922 245.581 83.274 245.796 82.8584C245.887 82.6815 246.104 82.6125 246.282 82.7033C246.459 82.7945 246.528 83.0122 246.437 83.1894C246.216 83.6175 245.978 84.0479 245.728 84.4692C245.66 84.5831 245.54 84.6461 245.417 84.6461Z" fill="#017C85"/>
<path d="M222.135 96.7179C222.125 96.7179 222.116 96.7176 222.106 96.7169C221.128 96.6397 220.145 96.5044 219.185 96.315C218.99 96.2762 218.863 96.0863 218.901 95.8912C218.94 95.6957 219.13 95.5682 219.325 95.607C220.258 95.7916 221.212 95.9229 222.163 95.9976C222.361 96.0135 222.51 96.1872 222.494 96.3855C222.479 96.5746 222.321 96.7179 222.135 96.7179ZM226.853 96.6415C226.671 96.6415 226.515 96.5053 226.494 96.321C226.472 96.123 226.615 95.9444 226.813 95.9222C227.762 95.8158 228.712 95.6531 229.636 95.4382C229.829 95.3911 230.024 95.5132 230.069 95.7077C230.114 95.9018 229.994 96.0956 229.8 96.1407C228.848 96.3622 227.87 96.5299 226.893 96.6394C226.879 96.6408 226.866 96.6415 226.853 96.6415ZM214.733 94.9708C214.687 94.9708 214.642 94.9623 214.597 94.9443C213.69 94.5758 212.795 94.1489 211.935 93.6755C211.761 93.5793 211.697 93.3599 211.793 93.1855C211.889 93.0112 212.108 92.9481 212.283 93.0436C213.118 93.5032 213.988 93.9179 214.869 94.2757C215.053 94.3507 215.142 94.5614 215.067 94.746C215.01 94.8859 214.875 94.9708 214.733 94.9708ZM234.192 94.6471C234.054 94.6471 233.922 94.5675 233.862 94.4337C233.781 94.2515 233.863 94.0384 234.045 93.9571C234.914 93.5686 235.77 93.124 236.587 92.6361C236.757 92.5336 236.979 92.5896 237.082 92.7608C237.184 92.9321 237.128 93.1533 236.957 93.2554C236.115 93.7581 235.234 94.2156 234.339 94.6158C234.291 94.6372 234.241 94.6471 234.192 94.6471ZM208.216 91.0565C208.135 91.0565 208.053 91.0291 207.985 90.9727C207.235 90.3468 206.512 89.6676 205.836 88.9547C205.699 88.8099 205.705 88.5816 205.849 88.4446C205.994 88.3079 206.223 88.3135 206.359 88.458C207.016 89.1512 207.719 89.8107 208.447 90.419C208.6 90.5465 208.621 90.7741 208.493 90.927C208.422 91.0125 208.319 91.0565 208.216 91.0565ZM240.575 90.5127C240.476 90.5127 240.377 90.4718 240.306 90.3922C240.173 90.2436 240.186 90.0153 240.335 89.8829L240.547 89.6916C241.181 89.1128 241.791 88.4954 242.36 87.856C242.493 87.7064 242.72 87.693 242.869 87.8262C243.019 87.9586 243.032 88.1865 242.899 88.3352C242.314 88.9936 241.686 89.6294 241.033 90.225L240.816 90.4212C240.746 90.4823 240.661 90.5127 240.575 90.5127ZM203.187 85.3526C203.068 85.3526 202.952 85.2941 202.883 85.1863C202.354 84.3613 201.869 83.4958 201.441 82.613C201.354 82.4338 201.429 82.2181 201.608 82.1311C201.788 82.0444 202.003 82.1191 202.09 82.298C202.506 83.155 202.977 83.9959 203.491 84.7972C203.598 84.9649 203.549 85.1879 203.381 85.2953C203.321 85.3342 203.254 85.3526 203.187 85.3526Z" fill="#017C85"/>
<path d="M200.122 78.3779C199.962 78.3779 199.816 78.2712 199.773 78.1096C199.649 77.6407 199.537 77.1613 199.44 76.6854C199.4 76.4903 199.526 76.3 199.721 76.2603C199.917 76.2205 200.108 76.3462 200.147 76.5417C200.241 77.0038 200.35 77.4692 200.471 77.925C200.522 78.1174 200.407 78.315 200.214 78.366C200.183 78.3741 200.152 78.3779 200.122 78.3779Z" fill="#017C85"/>
<path d="M203.084 58.8022C203.018 58.8022 202.951 58.7842 202.892 58.7465C202.723 58.6404 202.672 58.4179 202.779 58.2491C203.038 57.8377 203.313 57.4291 203.595 57.0342C203.711 56.8726 203.936 56.8349 204.098 56.9505C204.26 57.0664 204.297 57.2915 204.181 57.4535C203.907 57.8371 203.641 58.2341 203.389 58.6339C203.321 58.7426 203.203 58.8022 203.084 58.8022Z" fill="#017C85"/>
<path d="M246.894 62.3102C246.754 62.3102 246.621 62.2278 246.562 62.0904C246.196 61.2287 245.776 60.3791 245.312 59.565C245.213 59.3921 245.274 59.1716 245.447 59.0729C245.619 58.9742 245.84 59.0349 245.939 59.2078C246.416 60.0462 246.85 60.9211 247.227 61.8085C247.304 61.9917 247.219 62.2037 247.035 62.2815C246.989 62.301 246.941 62.3102 246.894 62.3102ZM242.958 55.9464C242.857 55.9464 242.755 55.9034 242.684 55.8196C242.5 55.6033 242.311 55.3896 242.118 55.1778C241.678 54.6956 241.214 54.2253 240.738 53.7801C240.592 53.6438 240.585 53.4155 240.721 53.2701C240.857 53.1242 241.085 53.1168 241.231 53.2531C241.72 53.7114 242.198 54.1955 242.651 54.6917C242.85 54.9091 243.044 55.1292 243.233 55.3518C243.362 55.5037 243.344 55.7312 243.192 55.8605C243.124 55.9182 243.041 55.9464 242.958 55.9464ZM206.924 54.0964C206.829 54.0964 206.734 54.0591 206.663 53.9847C206.526 53.8403 206.531 53.6121 206.675 53.4746C206.821 53.3354 206.969 53.1974 207.118 53.0607C207.682 52.5464 208.275 52.0522 208.882 51.5918C209.04 51.4709 209.266 51.5016 209.387 51.6608C209.508 51.8192 209.477 52.0454 209.318 52.166C208.729 52.6137 208.152 53.0938 207.605 53.5933C207.459 53.7265 207.315 53.8611 207.173 53.9966C207.103 54.0632 207.014 54.0964 206.924 54.0964ZM237.311 51.0374C237.245 51.0374 237.179 51.0194 237.119 50.9818C236.327 50.4812 235.498 50.0222 234.655 49.6171C234.475 49.5309 234.399 49.3156 234.486 49.136C234.572 48.9563 234.786 48.8795 234.967 48.9669C235.835 49.384 236.689 49.8567 237.504 50.3716C237.673 50.4783 237.723 50.701 237.617 50.8694C237.548 50.9778 237.431 51.0374 237.311 51.0374ZM213.045 49.7915C212.912 49.7915 212.784 49.7182 212.721 49.5914C212.632 49.4128 212.705 49.1966 212.884 49.1078C213.746 48.6794 214.643 48.2965 215.553 47.969C215.741 47.902 215.947 47.9989 216.014 48.1864C216.082 48.3737 215.985 48.5805 215.797 48.6478C214.914 48.9659 214.041 49.3379 213.205 49.7538C213.153 49.7796 213.098 49.7915 213.045 49.7915ZM230.457 48.0454C230.426 48.0454 230.395 48.0415 230.364 48.0334C229.459 47.7931 228.53 47.6028 227.603 47.468C227.406 47.4395 227.269 47.2562 227.298 47.0593C227.327 46.8617 227.508 46.7204 227.707 46.7543C228.661 46.893 229.617 47.0886 230.549 47.3359C230.741 47.387 230.856 47.5845 230.805 47.7772C230.762 47.9386 230.616 48.0454 230.457 48.0454ZM220.172 47.5177C219.998 47.5177 219.844 47.3909 219.816 47.2134C219.785 47.0165 219.919 46.8319 220.116 46.8009C221.066 46.6505 222.037 46.5536 223.003 46.5128C223.202 46.5086 223.37 46.6586 223.379 46.858C223.387 47.057 223.232 47.2251 223.033 47.2335C222.095 47.273 221.152 47.3673 220.229 47.5132C220.21 47.5163 220.191 47.5177 220.172 47.5177Z" fill="#017C85"/>
<path d="M248.571 68.1631C248.396 68.1631 248.243 68.0359 248.215 67.858C248.142 67.392 248.055 66.9221 247.955 66.461C247.914 66.2662 248.037 66.0742 248.232 66.0323C248.43 65.9904 248.619 66.1144 248.661 66.3088C248.763 66.7833 248.853 67.2673 248.928 67.7467C248.958 67.9436 248.824 68.1281 248.627 68.1589C248.608 68.1617 248.589 68.1631 248.571 68.1631Z" fill="#017C85"/>
<path d="M243.127 71.0887C243.136 70.9622 243.065 70.8432 242.948 70.7927L239.627 69.3498C239.37 67.6781 238.845 66.0353 238.045 64.4896L239.878 61.3689C239.943 61.2595 239.93 61.1213 239.848 61.0248L237.024 57.7238C236.942 57.6274 236.807 57.594 236.689 57.6405L233.322 58.9681C231.919 57.9384 230.377 57.1652 228.765 56.6528L227.854 53.1477C227.822 53.025 227.716 52.9359 227.59 52.9261L223.259 52.5887C223.132 52.5788 223.013 52.6503 222.963 52.7667L221.52 56.0883C219.848 56.3449 218.205 56.8699 216.66 57.6699L213.539 55.8368C213.43 55.7724 213.291 55.7847 213.195 55.8672L209.894 58.6911C209.798 58.7736 209.764 58.9082 209.811 59.0263L211.138 62.3932C210.108 63.7964 209.335 65.338 208.823 66.9498L205.318 67.8608C205.195 67.8927 205.106 67.9991 205.096 68.1257L204.759 72.4565C204.749 72.583 204.82 72.7019 204.937 72.7525L208.258 74.1954C208.515 75.867 209.04 77.5099 209.84 79.0556L208.007 82.1763C207.943 82.2857 207.955 82.4239 208.037 82.5203L210.861 85.8214C210.944 85.9178 211.078 85.9512 211.196 85.9047L214.563 84.5771C215.966 85.6069 217.508 86.38 219.12 86.8924L220.031 90.3973C220.063 90.5202 220.169 90.6093 220.296 90.6192L224.627 90.9566C224.753 90.9665 224.872 90.895 224.923 90.7785L226.365 87.457C228.037 87.2004 229.68 86.6753 231.226 85.8754L234.346 87.7085C234.456 87.7726 234.594 87.7604 234.69 87.6779L237.991 84.8543C238.088 84.7717 238.121 84.6371 238.075 84.519L236.747 81.1522C237.777 79.7489 238.55 78.2074 239.062 76.5956L242.567 75.6846C242.69 75.6527 242.779 75.5464 242.789 75.4197L243.127 71.0887Z" fill="#017C85"/>
<path opacity="0.7" d="M223.937 76.1715C223.034 76.1715 222.156 75.8939 221.405 75.3623C219.426 73.9614 218.955 71.2111 220.356 69.2314C221.034 68.2723 222.046 67.635 223.204 67.437C224.362 67.2387 225.528 67.5035 226.487 68.1821C227.446 68.8608 228.083 69.8721 228.281 71.03C228.479 72.1882 228.215 73.3541 227.536 74.313C226.857 75.2721 225.846 75.9094 224.688 76.1073C224.437 76.1504 224.186 76.1715 223.937 76.1715ZM223.95 68.4571C222.91 68.4571 221.885 68.9443 221.239 69.8563C220.183 71.3491 220.538 73.4228 222.03 74.4788C222.753 74.9907 223.634 75.1904 224.505 75.0407C225.378 74.8913 226.141 74.4109 226.652 73.688C227.164 72.9648 227.364 72.0856 227.214 71.2127C227.065 70.3395 226.585 69.5768 225.862 69.0653C225.281 68.6543 224.613 68.4571 223.95 68.4571Z" fill="white"/>
<path opacity="0.7" d="M223.867 82.7959C223.577 82.7959 223.285 82.7847 222.993 82.7617C220.058 82.5331 217.387 81.1748 215.473 78.9374C213.699 76.8641 212.831 74.3158 212.832 71.7796C212.832 68.6674 214.139 65.5729 216.684 63.396C221.302 59.4445 228.275 59.9879 232.225 64.607C232.256 64.6429 232.287 64.6796 232.318 64.7159C232.746 65.2302 233.127 65.7819 233.454 66.3599C233.455 66.3624 233.457 66.3645 233.458 66.3666C233.463 66.3754 233.467 66.3839 233.472 66.3924C233.481 66.4075 233.489 66.4227 233.497 66.4375C233.502 66.4459 233.507 66.4544 233.511 66.4624C233.526 66.4885 233.54 66.5149 233.554 66.541L232.602 67.0552C232.268 66.4367 231.864 65.8499 231.403 65.3102C228.88 62.3611 224.992 61.2554 221.458 62.1244C220.001 62.483 218.604 63.178 217.387 64.2182C215.092 66.1817 213.913 68.9722 213.913 71.779C213.913 74.0661 214.695 76.3642 216.295 78.2343C219.858 82.399 226.146 82.8897 230.311 79.3263C231.68 78.155 232.705 76.6376 233.274 74.938L234.3 75.2818C233.669 77.1671 232.533 78.8497 231.014 80.1485C229 81.8716 226.49 82.7959 223.867 82.7959Z" fill="white"/>
<path d="M153.626 121.496C154.515 120.663 155.717 120.249 156.931 120.358C169.914 121.526 194.137 115.272 209.968 99.0743C211.067 97.9495 213.071 98.5853 214.331 99.5268C231.937 112.686 261.122 115.411 271.253 115.968C273.349 116.083 275.049 117.709 275.266 119.797C284.479 208.783 226.54 241.029 214.524 246.721C213.21 247.343 211.664 247.253 210.43 246.484C150.54 209.18 153.102 160.666 152.274 124.72C152.246 123.502 152.736 122.329 153.626 121.496Z" fill="#FFE502"/>
<path opacity="0.61" d="M212.903 240.257C212.636 240.257 212.368 240.182 212.135 240.034C189.175 225.356 174.21 207.809 166.386 186.39C159.398 167.26 159.056 147.78 158.754 130.594L158.713 128.302C158.706 127.92 158.85 127.559 159.117 127.287C159.387 127.012 159.749 126.861 160.136 126.861H160.137C174.356 126.861 195.699 120.582 211.352 106.556C211.833 106.125 212.544 106.073 213.083 106.431C230.283 117.843 254.816 121.166 267.91 122.131C268.607 122.182 269.157 122.726 269.218 123.423C272.261 158.144 265.039 187.505 247.753 210.689C234.842 228.004 219.532 237.026 213.549 240.102C213.347 240.206 213.125 240.257 212.903 240.257ZM213.283 239.583C219.23 236.527 234.448 227.558 247.285 210.341C264.484 187.274 271.668 158.048 268.637 123.474C268.601 123.063 268.277 122.743 267.867 122.712C254.717 121.743 230.071 118.402 212.761 106.916C212.444 106.706 212.024 106.736 211.741 106.99C195.973 121.119 174.467 127.444 160.149 127.444H160.149C159.907 127.444 159.693 127.533 159.533 127.696C159.376 127.855 159.292 128.067 159.296 128.292L159.337 130.583C159.638 147.724 159.979 167.152 166.934 186.19C174.712 207.485 189.601 224.936 212.45 239.542C212.7 239.702 213.019 239.718 213.283 239.583Z" fill="white"/>
<path opacity="0.61" d="M233.838 155.086H231.13C229.785 155.086 228.695 153.996 228.695 152.651V143.395C228.695 140.081 226.008 137.395 222.695 137.395H205.913C202.6 137.395 199.914 140.081 199.914 143.395V152.651C199.914 153.996 198.824 155.086 197.479 155.086H194.77C193.426 155.086 192.335 153.996 192.335 152.651V143.395C192.335 135.896 198.415 129.817 205.913 129.817H222.695C230.194 129.817 236.273 135.896 236.273 143.395V152.651C236.273 153.996 235.183 155.086 233.838 155.086Z" fill="white"/>
<path opacity="0.61" d="M237.192 157.272H191.411C188.606 157.272 186.332 159.546 186.332 162.351V197.486C186.332 200.292 188.606 202.566 191.411 202.566H237.192C239.998 202.566 242.272 200.292 242.272 197.486V162.351C242.272 159.546 239.998 157.272 237.192 157.272ZM220.852 191.23C221.136 192.413 220.239 193.552 219.022 193.552H209.581C208.364 193.552 207.467 192.413 207.752 191.23L209.954 182.06C207.354 180.506 205.654 177.6 205.828 174.312C206.053 170.054 209.504 166.567 213.76 166.303C218.692 165.997 222.788 169.906 222.788 174.772C222.788 177.87 221.128 180.578 218.649 182.06L220.852 191.23Z" fill="white"/>
<path d="M38.828 145.784C38.828 145.784 42.5359 145.981 42.9906 153.609C42.9906 153.609 34.3926 161.317 22.7785 163.151C21.9065 163.289 23.9974 157.199 24.3117 156.374C25.8073 152.449 30.5174 149.922 38.828 145.784Z" fill="url(#paint3_linear_351_6144)"/>
<path d="M80.5911 136.816H72.7665C72.7665 136.816 48.7508 110.293 32.9995 107.617C32.9995 107.617 22.035 121.613 33.5834 147.764C34.5125 149.867 37.1107 150.802 39.0488 149.564C39.6284 149.194 40.0447 148.698 40.2975 148.076L39.3689 125.747C39.3689 125.747 59.8544 143.664 63.4152 147.121C66.9759 150.579 85.0754 148.471 80.5911 136.816Z" fill="#017C85"/>
<path d="M4.94079 192.502C8.21968 189.629 13.4441 186.405 20.9862 185.481L23.5368 187.041C23.5368 187.041 21.9103 189.44 18.939 191.974C16.2082 193.56 11.9914 195.708 8.49547 196.174C5.09668 196.627 4.59547 194.573 4.94079 192.502Z" fill="url(#paint4_linear_351_6144)"/>
<path d="M24.3131 156.375C26.3331 157.029 27.2216 159.891 32.3472 157.998C37.3063 156.167 40.9928 153.806 42.8894 152.444C42.9318 152.813 42.9674 153.199 42.992 153.61C42.992 153.61 33.9263 162.233 22.3121 164.067C21.4402 164.205 20.7491 163.335 21.0636 162.51C21.6275 161.03 22.6444 158.785 24.3131 156.375Z" fill="#006269"/>
<path d="M2.46976 194.956C3.11616 194.221 3.94116 193.377 4.93994 192.502C4.59452 194.573 5.09583 196.627 8.49473 196.174C11.9906 195.709 16.2074 193.56 18.9383 191.974C15.5156 194.893 10.3079 197.991 3.73502 197.81C2.27498 197.769 1.50505 196.052 2.46976 194.956Z" fill="#006269"/>
<path d="M80.3013 142.477L43.6595 142.873C43.6595 142.873 22.7343 160.186 18.9387 186.585C18.9387 186.585 18.3088 188.527 22.0912 188.859C22.0912 188.859 34.7424 180.596 42.9916 165.987C53.1063 148.075 73.1447 156.138 73.1447 156.138C82.7717 158.263 90.4341 157.472 96.0415 148.843L80.3013 142.477Z" fill="#017C85"/>
<path d="M79.4341 112.96C79.4341 112.96 75.4894 132.729 56.1622 140.549L49.2873 139.739L47.665 142.326L63.7914 142.84C63.7914 142.84 77.5761 137.38 84.8796 122.502C85.1209 122.011 89.1427 113.707 79.4341 112.96Z" fill="url(#paint5_linear_351_6144)"/>
<path d="M77.3188 142.154C77.3188 142.154 81.8044 129.961 82.7684 118.113C82.7684 118.113 79.4869 115.293 77.4357 114.076C76.7715 113.682 76.5207 112.848 76.8565 112.153C78.3645 109.029 87.4842 96.7625 88.1673 96.592C91.8804 95.6653 107.108 88.4248 117.834 103.095C122.436 109.391 116.92 128.772 96.0381 148.843C89.3186 149.937 83.0365 148.001 77.3188 142.154Z" fill="url(#paint6_linear_351_6144)"/>
<path d="M94.603 120.785C94.603 120.785 82.1405 135.541 66.2071 137.698C66.2071 137.698 62.0893 133.944 59.0272 135.284C55.9652 136.625 51.7666 142.541 51.7666 142.541H72.2251C72.2251 142.541 91.5694 141.859 101.236 130.129C100.458 126.024 98.1286 123.572 94.603 120.785Z" fill="url(#paint7_linear_351_6144)"/>
<path d="M101.879 86.2421L104.606 95.3367C104.731 95.7533 104.577 96.2046 104.218 96.4504C102.905 97.3495 99.4739 99.1377 94.7669 97.3999C94.2285 97.2012 93.8596 96.6985 93.813 96.1265L93.1665 88.2036L101.879 86.2421Z" fill="url(#paint8_linear_351_6144)"/>
<path d="M85.9067 78.8771C85.9067 78.8771 87.2474 88.3047 90.869 91.2039C94.4904 94.103 101.546 91.9201 103.929 84.8128L99.181 72.6608L85.9067 78.8771Z" fill="url(#paint9_linear_351_6144)"/>
<path d="M99.7172 80.524C99.4417 80.6128 99.1533 80.4363 99.1103 80.1501C98.9795 79.2798 98.6533 77.5576 97.9925 76.3843C97.9925 76.3843 98.3382 75.1475 94.8666 77.0159C91.3951 78.8844 86.1811 81.6292 83.1111 79.9947C80.1182 78.4012 77.0865 70.3814 84.9964 71.8673C85.2974 71.9239 85.5741 71.6841 85.5516 71.3786C85.4545 70.0605 85.5852 67.0282 88.656 66.0549C91.5296 65.1441 93.1028 66.4413 93.7511 67.2243C93.9418 67.4546 94.2957 67.45 94.4776 67.2126C95.3385 66.0888 97.6762 63.6968 101.118 65.2134C103.952 66.4627 104.393 68.2086 104.347 69.2966C104.331 69.6491 104.689 69.8881 105.01 69.7404C105.878 69.3406 107.274 69.1328 108.612 70.8088C110.461 73.1258 107.818 75.1351 107.026 75.6619C106.896 75.7482 106.815 75.8913 106.814 76.0473C106.806 77.2522 106.619 82.5083 103.984 85.4732C103.756 85.7299 103.335 85.6545 103.202 85.3379L101.174 80.5052C101.079 80.2807 100.829 80.1657 100.597 80.2404L99.7172 80.524Z" fill="url(#paint10_linear_351_6144)"/>
<path d="M99.6724 81.5048C99.6724 81.5048 100.911 76.46 102.792 78.0979C104.674 79.7358 102.302 83.3409 100.147 84.028L99.6724 81.5048Z" fill="url(#paint11_linear_351_6144)"/>
<path d="M52.8036 143.686L43.6178 113.052C43.2432 111.803 42.1328 110.916 40.8313 110.827L28.4292 109.978C27.1685 109.892 26.2308 111.124 26.6494 112.316L36.9183 141.571C37.2492 142.513 38.0953 143.179 39.089 143.28L51.3018 144.636L52.8036 143.686Z" fill="url(#paint12_linear_351_6144)"/>
<path d="M35.8552 123.434C36.541 124.819 37.7254 125.63 38.5006 125.246C39.2758 124.862 39.3482 123.428 38.6624 122.044C37.9765 120.659 36.7923 119.848 36.0171 120.233C35.2419 120.617 35.1694 122.05 35.8552 123.434Z" fill="#91B3FA"/>
<path d="M51.2982 144.635C51.3181 144.635 51.3381 144.635 51.3581 144.634L77.3808 143.318C78.0241 143.286 78.5192 142.738 78.4868 142.095C78.4543 141.451 77.904 140.946 77.263 140.989L51.2402 142.304C50.597 142.337 50.1019 142.884 50.1343 143.528C50.1659 144.151 50.6811 144.635 51.2982 144.635Z" fill="url(#paint13_linear_351_6144)"/>
<path d="M82.7722 118.293C82.6729 118.293 82.5922 118.213 82.5919 118.114C82.5738 112.62 84.6876 105.35 84.709 105.277C84.7369 105.182 84.8368 105.127 84.9328 105.155C85.0284 105.183 85.0832 105.283 85.0551 105.379C85.0338 105.451 82.9346 112.672 82.9526 118.112C82.9529 118.212 82.8724 118.293 82.7728 118.293H82.7722Z" fill="url(#paint14_linear_351_6144)"/>
<path d="M94.6079 120.964C94.5688 120.964 94.5293 120.952 94.4962 120.926C94.4182 120.864 94.4048 120.751 94.4664 120.672C94.5233 120.6 100.18 113.41 102.116 108.504C102.152 108.411 102.256 108.364 102.35 108.402C102.442 108.439 102.488 108.544 102.451 108.636C100.496 113.591 94.8069 120.824 94.7497 120.896C94.714 120.941 94.6612 120.964 94.6079 120.964Z" fill="#001C1E"/>
<path d="M102.624 132.021L101.595 130.566C101.537 130.485 101.556 130.372 101.638 130.314C101.719 130.256 101.832 130.276 101.889 130.357L102.75 131.574C110.776 128.055 115.744 118.454 115.794 118.357C115.839 118.268 115.947 118.232 116.037 118.278C116.125 118.323 116.161 118.432 116.115 118.521C116.065 118.619 110.984 128.442 102.758 131.964L102.624 132.021Z" fill="url(#paint15_linear_351_6144)"/>
<defs>
<linearGradient id="paint0_linear_351_6144" x1="320.201" y1="303.119" x2="104.718" y2="114.571" gradientUnits="userSpaceOnUse">
<stop stop-color="white"/>
<stop offset="1" stop-color="#FFF59D"/>
</linearGradient>
<linearGradient id="paint1_linear_351_6144" x1="140.995" y1="283.81" x2="102.583" y2="168.572" gradientUnits="userSpaceOnUse">
<stop stop-color="#09005D"/>
<stop offset="1" stop-color="#1A0F91"/>
</linearGradient>
<linearGradient id="paint2_linear_351_6144" x1="51.622" y1="276.922" x2="222.658" y2="318.526" gradientUnits="userSpaceOnUse">
<stop stop-color="#09005D"/>
<stop offset="1" stop-color="#1A0F91"/>
</linearGradient>
<linearGradient id="paint3_linear_351_6144" x1="35.0813" y1="153.035" x2="21.6394" y2="167.075" gradientUnits="userSpaceOnUse">
<stop stop-color="#09005D"/>
<stop offset="1" stop-color="#1A0F91"/>
</linearGradient>
<linearGradient id="paint4_linear_351_6144" x1="17.251" y1="188.275" x2="-8.17497" y2="206.936" gradientUnits="userSpaceOnUse">
<stop stop-color="#09005D"/>
<stop offset="1" stop-color="#1A0F91"/>
</linearGradient>
<linearGradient id="paint5_linear_351_6144" x1="58.3272" y1="119.307" x2="75.5888" y2="139.834" gradientUnits="userSpaceOnUse">
<stop stop-color="#FEBBBA"/>
<stop offset="1" stop-color="#FF928E"/>
</linearGradient>
<linearGradient id="paint6_linear_351_6144" x1="143.915" y1="68.7823" x2="91.9734" y2="122.888" gradientUnits="userSpaceOnUse">
<stop stop-color="#017C85"/>
<stop offset="1" stop-color="#70AFB3"/>
</linearGradient>
<linearGradient id="paint7_linear_351_6144" x1="78.4534" y1="137.984" x2="43.95" y2="90.7817" gradientUnits="userSpaceOnUse">
<stop stop-color="#FEBBBA"/>
<stop offset="1" stop-color="#FF928E"/>
</linearGradient>
<linearGradient id="paint8_linear_351_6144" x1="99.5662" y1="98.8677" x2="98.2952" y2="87.4295" gradientUnits="userSpaceOnUse">
<stop stop-color="#FEBBBA"/>
<stop offset="1" stop-color="#FF928E"/>
</linearGradient>
<linearGradient id="paint9_linear_351_6144" x1="92.782" y1="88.8905" x2="98.3837" y2="70.4147" gradientUnits="userSpaceOnUse">
<stop stop-color="#FEBBBA"/>
<stop offset="1" stop-color="#FF928E"/>
</linearGradient>
<linearGradient id="paint10_linear_351_6144" x1="97.8382" y1="54.9652" x2="92.6301" y2="84.6709" gradientUnits="userSpaceOnUse">
<stop stop-color="#09005D"/>
<stop offset="1" stop-color="#1A0F91"/>
</linearGradient>
<linearGradient id="paint11_linear_351_6144" x1="98.5834" y1="90.649" x2="104.185" y2="72.1731" gradientUnits="userSpaceOnUse">
<stop stop-color="#FEBBBA"/>
<stop offset="1" stop-color="#FF928E"/>
</linearGradient>
<linearGradient id="paint12_linear_351_6144" x1="52.8036" y1="127.305" x2="26.5484" y2="127.305" gradientUnits="userSpaceOnUse">
<stop stop-color="#09005D"/>
<stop offset="1" stop-color="#1A0F91"/>
</linearGradient>
<linearGradient id="paint13_linear_351_6144" x1="49.6133" y1="138.781" x2="70.6072" y2="144.535" gradientUnits="userSpaceOnUse">
<stop stop-color="#09005D"/>
<stop offset="1" stop-color="#1A0F91"/>
</linearGradient>
<linearGradient id="paint14_linear_351_6144" x1="88.4764" y1="39.6989" x2="80.3609" y2="164.678" gradientUnits="userSpaceOnUse">
<stop stop-color="#00393D"/>
<stop offset="1" stop-color="#003A3E"/>
</linearGradient>
<linearGradient id="paint15_linear_351_6144" x1="114.243" y1="41.3719" x2="106.127" y2="166.351" gradientUnits="userSpaceOnUse">
<stop stop-color="#003539"/>
<stop offset="1" stop-color="#00393D"/>
</linearGradient>
</defs>
</svg>
