<svg width="37" height="12" viewBox="0 0 37 12" fill="none" xmlns="http://www.w3.org/2000/svg">
<path d="M14.3567 7.27279L9.1104 1.23739L10.5203 0L22.5713 4.66644C26.103 3.57062 29.6451 2.33321 33.0414 1.23739C34.0346 0.963438 36.4489 0.963436 36.7207 1.92688C37.0141 2.88111 35.0286 4.39163 34.1709 4.80885C32.6134 5.21433 31.2026 5.63072 29.7927 6.17863C24.2651 7.96393 11.6611 11.9518 11.6611 11.9518C9.95688 12.2257 2.87181 11.2614 3.72951 10.856C4.85729 10.5703 10.95 8.52192 14.3567 7.27279ZM7.13615 9.0589L1.7423 6.59414L0.75 7.4152L3.44649 10.4388L7.13615 9.0589Z" fill="#017C85"/>
</svg>
