<svg width="25" height="12" viewBox="0 0 25 12" fill="none" xmlns="http://www.w3.org/2000/svg">
<path d="M24.75 10.772C24.75 11.1639 24.4905 11.4813 24.1707 11.4813H23.2463C23.178 11.78 22.9564 12 22.6908 12H2.80922C2.54359 12 2.32203 11.7796 2.25367 11.4813H1.32926C1.00921 11.4813 0.75 11.1636 0.75 10.772H24.75ZM12.8224 1.4033V1.26115C12.8224 1.18803 12.7953 1.12311 12.7535 1.07835C12.9694 1.00694 13.1268 0.800226 13.1268 0.553529C13.1268 0.24772 12.8869 0 12.5908 0C12.2948 0 12.0548 0.24772 12.0548 0.553529C12.0548 0.819702 12.2367 1.04146 12.4789 1.09442C12.4452 1.13816 12.4242 1.19658 12.4242 1.26115V1.40945C7.79684 1.57517 4.10726 5.25102 3.66919 10.0623H12.7501H21.8311C21.3846 5.16252 17.8884 1.43884 12.8224 1.4033Z" fill="#017C85"/>
</svg>
