<svg width="13" height="14" viewBox="0 0 13 14" fill="none" xmlns="http://www.w3.org/2000/svg">
<path d="M6.75194 7.11831C8.71877 7.11831 10.3132 5.52388 10.3132 3.55705C10.3132 1.59022 8.71877 -0.00421143 6.75194 -0.00421143C4.78511 -0.00421143 3.19067 1.59022 3.19067 3.55705C3.19067 5.52388 4.78511 7.11831 6.75194 7.11831Z" fill="#017C85"/>
<path d="M12.752 12.3855V13.393C12.752 13.7305 12.4783 14.0042 12.1407 14.0042H1.36317C1.0256 14.0042 0.751953 13.7305 0.751953 13.393V12.3855C0.751953 10.4815 1.60448 8.03734 4.09531 7.58292C4.89613 8.17936 5.64207 8.4298 6.75195 8.4298C7.86349 8.4298 8.70852 8.17496 9.39878 7.59376C11.9847 8.0874 12.752 10.6325 12.752 12.3855Z" fill="#017C85"/>
</svg>
