<svg width="28" height="28" viewBox="0 0 28 28" fill="none" xmlns="http://www.w3.org/2000/svg">
<g clip-path="url(#clip0_2001_159)">
<path d="M25.9828 7.19701C25.5839 6.27331 25.0087 5.43626 24.2894 4.73272C23.5695 4.02708 22.7208 3.46632 21.7894 3.08093C20.8235 2.67972 19.7876 2.47436 18.7418 2.47677C17.2745 2.47677 15.843 2.87855 14.5989 3.63748C14.3013 3.81903 14.0186 4.01843 13.7507 4.2357C13.4828 4.01843 13.2001 3.81903 12.9025 3.63748C11.6584 2.87855 10.2269 2.47677 8.75963 2.47677C7.70308 2.47677 6.67927 2.67915 5.71201 3.08093C4.77748 3.46784 3.93522 4.02439 3.21201 4.73272C2.49176 5.43546 1.91641 6.27271 1.51855 7.19701C1.10486 8.15831 0.893555 9.17915 0.893555 10.2297C0.893555 11.2208 1.09594 12.2536 1.49772 13.3041C1.83403 14.1821 2.31617 15.0928 2.93225 16.0125C3.90844 17.4678 5.2507 18.9857 6.91736 20.5244C9.67927 23.075 12.4144 24.8369 12.5305 24.9083L13.2358 25.3607C13.5483 25.5601 13.9501 25.5601 14.2626 25.3607L14.968 24.9083C15.084 24.8339 17.8162 23.075 20.5811 20.5244C22.2477 18.9857 23.59 17.4678 24.5662 16.0125C25.1822 15.0928 25.6674 14.1821 26.0007 13.3041C26.4025 12.2536 26.6049 11.2208 26.6049 10.2297C26.6078 9.17915 26.3965 8.15831 25.9828 7.19701ZM13.7507 23.0065C13.7507 23.0065 3.15546 16.2178 3.15546 10.2297C3.15546 7.197 5.66439 4.73867 8.75963 4.73867C10.9352 4.73867 12.8221 5.95296 13.7507 7.72677C14.6793 5.95296 16.5662 4.73867 18.7418 4.73867C21.837 4.73867 24.3459 7.197 24.3459 10.2297C24.3459 16.2178 13.7507 23.0065 13.7507 23.0065Z" fill="#017C85"/>
</g>
<defs>
<clipPath id="clip0_2001_159">
<rect width="26.6667" height="26.6667" fill="white" transform="translate(0.416748 0.666687)"/>
</clipPath>
</defs>
</svg>
