<svg width="127" height="131" viewBox="0 0 127 131" fill="none" xmlns="http://www.w3.org/2000/svg">
<path d="M7 114C7 114 -0.578567 124.39 0.463428 114.491C1.50477 104.597 8.28441 69.4506 8.28441 69.4506L42.9172 63.2959L7.5 106.5L7 114Z" fill="url(#paint0_linear_342_3894)"/>
<path d="M119 19L111.5 19L69.2818 27.7107L73.9928 10.4812C73.9928 10.4812 117.61 11.151 124.111 11.7569C130.62 12.3589 119 19 119 19Z" fill="url(#paint1_linear_342_3894)"/>
<path opacity="0.3" d="M11.1728 79.3573L6.99991 108.5C15.746 100.777 109.653 18.7079 115.483 18.0811L112.035 17.4843L81.3838 14.2704L11.1728 79.3573Z" fill="black"/>
<path d="M5.39186 66.4343C5.91377 61.6636 8.19747 57.2775 11.777 54.0777C34.3334 33.9147 37.9655 31.1796 65.3829 11.021C69.4146 8.05659 74.4107 6.71779 79.3872 7.24061C84.653 7.79382 91.4474 8.49427 98.1909 9.18947C108.727 10.2757 119.14 11.3491 123.404 11.8282C121.326 12.5593 118.248 14.2624 114.421 16.7153C110.147 19.4551 104.922 23.1412 99.085 27.4842C87.4104 36.1705 73.2784 47.4891 59.3818 59.1312C45.4851 70.7734 31.8222 82.7404 21.0859 92.7237C15.7178 97.7153 11.0804 102.212 7.51069 105.925C4.23717 109.329 1.85304 112.084 0.629975 113.958C0.765626 111.258 1.51859 103.394 2.43401 94.4027C3.42433 84.6754 4.60341 73.6412 5.39186 66.4343Z" fill="white" stroke="#FF0000" stroke-width="0.3"/>
<path d="M0.46199 114.516C4.21911 108.915 9.17415 104.26 13.8637 99.4657C18.6729 94.7681 23.6047 90.1828 28.5781 85.654C38.5271 76.6046 48.6845 67.7712 58.9591 59.086C69.3025 50.4837 79.7775 42.0295 90.4587 33.8401C95.7979 29.7445 101.186 25.7219 106.706 21.8536C109.474 19.9457 112.268 18.0719 115.138 16.3105C118.012 14.5809 120.909 12.7765 124.129 11.7575C120.937 12.8426 118.092 14.7109 115.255 16.498C112.44 18.3189 109.685 20.2583 106.967 22.2284C101.504 26.1342 96.1363 30.1968 90.8349 34.3249C80.2279 42.59 69.836 51.1271 59.5507 59.7939C49.2242 68.3853 39.0136 77.1388 28.9918 86.1128C23.9899 90.5975 19.0341 95.1392 14.1778 99.7892C9.38415 104.474 4.33806 109.017 0.46199 114.516Z" fill="#BE1E2D"/>
<path d="M2.31803 110.593C3.98247 107.903 6.17052 105.59 8.29116 103.256C10.4438 100.948 12.662 98.6938 14.9024 96.4699C19.4157 92.0572 24.0425 87.7542 28.7117 83.4999C38.0548 75.0059 47.5867 66.7181 57.2368 58.5548C66.9464 50.4878 76.7802 42.5475 86.8007 34.8637C91.8186 31.0249 96.8733 27.2405 102.05 23.6095C104.652 21.8136 107.284 20.0587 109.965 18.4021C112.674 16.788 115.374 15.0703 118.406 14.128C115.402 15.1301 112.742 16.9042 110.079 18.5768C107.435 20.2956 104.85 22.1076 102.293 23.9556C97.1634 27.6263 92.13 31.4334 87.1489 35.3139C77.1926 43.0645 67.4327 51.0836 57.7845 59.2139C48.0831 67.2929 38.4958 75.507 29.0954 83.9286C24.3963 88.1371 19.7448 92.4028 15.19 96.7733C12.9002 98.9415 10.6383 101.144 8.44197 103.401C6.26943 105.687 4.04235 107.951 2.31803 110.593Z" fill="#FF757A"/>
<defs>
<linearGradient id="paint0_linear_342_3894" x1="4.48996" y1="102.446" x2="41.2424" y2="73.3867" gradientUnits="userSpaceOnUse">
<stop stop-color="#C40000"/>
<stop offset="1" stop-color="#FF0300"/>
</linearGradient>
<linearGradient id="paint1_linear_342_3894" x1="83.3119" y1="30.2807" x2="113.175" y2="6.66912" gradientUnits="userSpaceOnUse">
<stop stop-color="#FF0300"/>
<stop offset="1" stop-color="#BB0000"/>
</linearGradient>
</defs>
</svg>
