<svg width="127" height="131" viewBox="0 0 127 131" fill="none" xmlns="http://www.w3.org/2000/svg">
<path d="M37.124 118.334C37.124 118.334 -0.578612 124.39 0.463383 114.49C1.50472 104.597 8.28437 69.4505 8.28437 69.4505L42.9171 63.2958L37.124 118.334Z" fill="url(#paint0_linear_2003_2966)"/>
<path d="M121.852 33.2227L69.2817 27.7106L73.9928 10.4811C73.9928 10.4811 117.61 11.1509 124.111 11.7568C130.62 12.3587 121.852 33.2227 121.852 33.2227Z" fill="url(#paint1_linear_2003_2966)"/>
<path opacity="0.3" d="M11.1727 79.3572L8.1243 108.319C16.8704 100.596 109.653 18.7078 115.483 18.081L112.035 17.4841L81.3837 14.2703L11.1727 79.3572Z" fill="black"/>
<path d="M5.39186 66.4342C5.91377 61.6635 8.19747 57.2774 11.777 54.0776C34.3334 33.9146 37.9655 31.1796 65.3829 11.0209C69.4146 8.0565 74.4107 6.7177 79.3872 7.24052C84.653 7.79373 91.4474 8.49418 98.1909 9.18938C108.727 10.2756 119.14 11.349 123.404 11.8282C121.326 12.5592 118.248 14.2623 114.421 16.7152C110.147 19.455 104.922 23.1411 99.085 27.4841C87.4104 36.1704 73.2784 47.489 59.3818 59.1311C45.4851 70.7733 31.8222 82.7403 21.0859 92.7236C15.7178 97.7152 11.0804 102.212 7.51069 105.925C4.23717 109.329 1.85304 112.083 0.629975 113.958C0.765626 111.258 1.51859 103.394 2.43401 94.4026C3.42433 84.6753 4.60341 73.6411 5.39186 66.4342Z" fill="white" stroke="#FF0000" stroke-width="0.3"/>
<path d="M0.46199 114.516C4.21911 108.915 9.17415 104.259 13.8637 99.4656C18.6729 94.768 23.6047 90.1827 28.5781 85.6539C38.5271 76.6045 48.6845 67.7711 58.9591 59.0859C69.3025 50.4836 79.7775 42.0294 90.4587 33.84C95.7979 29.7444 101.186 25.7218 106.706 21.8535C109.474 19.9456 112.268 18.0718 115.138 16.3104C118.012 14.5808 120.909 12.7764 124.129 11.7574C120.937 12.8425 118.092 14.7108 115.255 16.4979C112.44 18.3188 109.685 20.2582 106.967 22.2283C101.504 26.1341 96.1363 30.1968 90.8349 34.3248C80.2279 42.5899 69.836 51.127 59.5507 59.7938C49.2242 68.3852 39.0136 77.1387 28.9918 86.1127C23.9899 90.5974 19.0341 95.1391 14.1778 99.7891C9.38415 104.474 4.33806 109.017 0.46199 114.516Z" fill="#BE1E2D"/>
<path d="M2.31803 110.593C3.98247 107.903 6.17052 105.59 8.29116 103.256C10.4438 100.948 12.662 98.6938 14.9024 96.4699C19.4157 92.0571 24.0425 87.7541 28.7117 83.4998C38.0548 75.0058 47.5867 66.718 57.2368 58.5547C66.9464 50.4877 76.7802 42.5474 86.8007 34.8636C91.8186 31.0248 96.8733 27.2405 102.05 23.6094C104.652 21.8135 107.284 20.0586 109.965 18.402C112.674 16.7879 115.374 15.0702 118.406 14.128C115.402 15.13 112.742 16.9041 110.079 18.5767C107.435 20.2955 104.85 22.1075 102.293 23.9555C97.1634 27.6262 92.13 31.4333 87.1489 35.3138C77.1926 43.0644 67.4327 51.0835 57.7845 59.2138C48.0831 67.2928 38.4958 75.5069 29.0954 83.9285C24.3963 88.137 19.7448 92.4027 15.19 96.7732C12.9002 98.9414 10.6383 101.144 8.44197 103.401C6.26943 105.687 4.04235 107.951 2.31803 110.593Z" fill="#FF757A"/>
<defs>
<linearGradient id="paint0_linear_2003_2966" x1="4.48385" y1="102.446" x2="41.2363" y2="73.3869" gradientUnits="userSpaceOnUse">
<stop stop-color="#C40000"/>
<stop offset="1" stop-color="#FF0300"/>
</linearGradient>
<linearGradient id="paint1_linear_2003_2966" x1="83.307" y1="30.28" x2="113.17" y2="6.66839" gradientUnits="userSpaceOnUse">
<stop stop-color="#FF0300"/>
<stop offset="1" stop-color="#BB0000"/>
</linearGradient>
</defs>
</svg>
