<svg width="26" height="28" viewBox="0 0 26 28" fill="none" xmlns="http://www.w3.org/2000/svg">
<path d="M20.699 18.6273C19.3187 18.6273 18.0329 19.2433 17.1612 20.3199L9.04837 15.6356C9.25023 15.1126 9.3529 14.563 9.3529 14.0002C9.3529 13.4379 9.25023 12.8882 9.04837 12.3652L17.1612 7.68096C18.0324 8.7571 19.3183 9.37362 20.699 9.37362C23.2083 9.37362 25.25 7.33186 25.25 4.82173C25.25 2.31203 23.2083 0.270264 20.699 0.270264C18.1889 0.270264 16.1471 2.31203 16.1471 4.82173C16.1471 5.38405 16.2498 5.93369 16.4516 6.45713L8.3388 11.141C7.46801 10.0648 6.18214 9.44833 4.80102 9.44833C2.29175 9.44833 0.25 11.4901 0.25 13.9998C0.25 16.5095 2.29175 18.5517 4.80102 18.5517C6.18214 18.5517 7.46801 17.9356 8.3388 16.859L16.4516 21.5429C16.2498 22.0659 16.1471 22.616 16.1471 23.1783C16.1471 25.688 18.1889 27.7297 20.699 27.7297C23.2083 27.7297 25.25 25.688 25.25 23.1783C25.25 20.6686 23.2083 18.6273 20.699 18.6273ZM20.699 1.68459C22.4288 1.68459 23.8361 3.09194 23.8361 4.82173C23.8361 6.55151 22.4292 7.95885 20.699 7.95885C18.9692 7.95885 17.5614 6.55151 17.5614 4.82173C17.5614 3.09194 18.9688 1.68459 20.699 1.68459ZM4.80102 17.1373C3.07123 17.1373 1.66389 15.73 1.66389 14.0002C1.66389 12.2704 3.07079 10.8631 4.80102 10.8631C6.53124 10.8631 7.93858 12.2704 7.93858 14.0002C7.93814 15.73 6.5308 17.1373 4.80102 17.1373ZM20.699 26.3158C18.9692 26.3158 17.5614 24.9085 17.5614 23.1787C17.5614 21.4489 18.9688 20.0416 20.699 20.0416C22.4288 20.0416 23.8361 21.4489 23.8361 23.1787C23.8357 24.9085 22.4288 26.3158 20.699 26.3158Z" fill="#017C85"/>
</svg>
